<?xml version="1.0" encoding="UTF-8" standalone="no"?>
<!DOCTYPE svg PUBLIC "-//W3C//DTD SVG 1.1//EN" "http://www.w3.org/Graphics/SVG/1.1/DTD/svg11.dtd">
<!-- Created with Vectornator (http://vectornator.io/) -->
<svg height="100%" stroke-miterlimit="10" style="fill-rule:nonzero;clip-rule:evenodd;stroke-linecap:round;stroke-linejoin:round;" version="1.1" viewBox="0 0 1000 500" width="100%" xml:space="preserve" xmlns="http://www.w3.org/2000/svg" xmlns:vectornator="http://vectornator.io" xmlns:xlink="http://www.w3.org/1999/xlink">
<defs>
<clipPath id="TextBounds">
<rect height="47" width="272.376" x="449.394" y="196.984"/>
</clipPath>
<clipPath id="TextBounds_2">
<rect height="27.1577" width="163.915" x="226.215" y="330.554"/>
</clipPath>
<clipPath id="TextBounds_3">
<rect height="15.8174" width="95.8626" x="104.694" y="361.668"/>
</clipPath>
</defs>
<clipPath id="ArtboardFrame">
<rect height="500" width="1000" x="0" y="0"/>
</clipPath>
<g clip-path="url(#ArtboardFrame)" id="Слой-1" vectornator:layerName="Слой 1">
<path d="M337.254 25.4262L338.802 25.4262L822.729 25.4262C829.387 25.4262 834.785 30.8995 834.785 37.6511L835.039 329.605C834.575 346.319 815.718 361.373 804.046 361.208L440.387 361.539C440.339 361.422 440.273 222.622 440.374 180.024C440.402 168.211 432.467 160.833 421.937 160.917C421.059 160.924 325.068 160.847 325.068 160.847L325.198 37.6511C325.198 30.8995 330.596 25.4262 337.254 25.4262Z" fill="none" opacity="1" stroke="#000000" stroke-linecap="butt" stroke-linejoin="miter" stroke-width="1.5"/>
<path d="M194.033 160.877L422.569 160.877C432.385 160.877 440.343 168.811 440.343 178.598L440.343 456.225C440.343 466.012 432.388 473.634 422.572 473.634L193.814 473.766C213.913 472.767 213.365 455.309 213.204 451.661C213.204 451.661 213.656 314.696 213.47 261.336C213.411 244.229 201.828 239.358 191.374 239.358C178.246 239.358 176.259 239.283 176.259 239.283L176.259 178.598C176.259 168.811 184.217 160.877 194.033 160.877Z" fill="none" opacity="1" stroke="#000000" stroke-linecap="butt" stroke-linejoin="miter" stroke-width="1.5"/>
<path d="M116.338 239.239L189.954 239.386C203.922 239.104 213.271 245.94 213.558 261.252L213.287 454.498C213.287 465.15 204.63 473.786 193.951 473.786L116.338 473.786C105.659 473.786 97.0018 465.15 97.0018 454.498L97.0018 258.527C97.0018 247.875 105.659 239.239 116.338 239.239Z" fill="none" opacity="1" stroke="#000000" stroke-linecap="butt" stroke-linejoin="miter" stroke-width="1.5"/>
<path d="M469.357 440.644L691.21 440.644C700.98 440.644 708.901 448.008 708.901 457.093L708.901 457.093C708.901 466.178 700.98 473.543 691.21 473.543L469.357 473.543C459.587 473.543 451.667 466.178 451.667 457.093L451.667 457.093C451.667 448.008 459.587 440.644 469.357 440.644Z" fill="none" opacity="1" stroke="#000000" stroke-linecap="butt" stroke-linejoin="miter" stroke-width="1.5"/>
<path d="M475.381 459.533L687.886 459.533C691.718 459.533 694.824 462.679 694.824 466.56L694.824 466.56C694.824 470.441 691.718 473.587 687.886 473.587L475.381 473.587C471.55 473.587 468.444 470.441 468.444 466.56L468.444 466.56C468.444 462.679 471.55 459.533 475.381 459.533Z" fill="#ffffff" fill-opacity="0.701739" fill-rule="nonzero" opacity="1" stroke="#000000" stroke-linecap="butt" stroke-linejoin="miter" stroke-width="1.5"/>
<path d="M468.74 440.467C487.078 424.028 507.954 392.985 506.663 361.568" fill="none" opacity="1" stroke="#000000" stroke-linecap="butt" stroke-linejoin="miter" stroke-width="1.5"/>
<path d="M655.292 361.353C656.041 389.905 674.294 423.408 692.587 440.748" fill="none" opacity="1" stroke="#000000" stroke-linecap="butt" stroke-linejoin="miter" stroke-width="1.5"/>
<path d="M440.545 311.537L835.152 312.039" fill="none" opacity="1" stroke="#000000" stroke-linecap="butt" stroke-linejoin="miter" stroke-width="1.5"/>
<path d="M341.405 40.7925L814.721 40.7925C816.925 40.7925 818.712 42.2417 818.712 44.0294L818.712 294.363C818.712 296.151 816.925 297.6 814.721 297.6L441.362 297.481L441.305 180.422C441.887 168.499 433.336 159.61 421.351 159.884L337.501 159.899L337.414 44.0294C337.414 42.2417 339.201 40.7925 341.405 40.7925Z" fill="#ffffff" fill-opacity="0.701739" fill-rule="nonzero" opacity="1" stroke="none"/>
<path d="M193.009 189.172L423.145 189.172C424.386 189.172 425.392 190.144 425.392 191.344L425.392 447.007C425.392 448.206 424.386 449.179 423.145 449.179L214.283 449.113L214.38 260.326C214.633 243.58 200.764 238.065 193.876 238.254L190.686 238.254L190.762 191.344C190.762 190.144 191.768 189.172 193.009 189.172Z" fill="#ffffff" fill-opacity="0.701739" fill-rule="nonzero" opacity="1" stroke="none"/>
<path d="M302.232 461.356C302.232 457.84 305.126 454.991 308.696 454.991C312.265 454.991 315.159 457.84 315.159 461.356C315.159 464.871 312.265 467.721 308.696 467.721C305.126 467.721 302.232 464.871 302.232 461.356Z" fill="none" opacity="1" stroke="#000000" stroke-linecap="butt" stroke-linejoin="miter" stroke-width="1.5"/>
<path d="M285.896 173.746L331.672 173.746C332.618 173.746 333.384 174.513 333.384 175.458L333.384 175.458C333.384 176.404 332.618 177.171 331.672 177.171L285.896 177.171C284.95 177.171 284.183 176.404 284.183 175.458L284.183 175.458C284.183 174.513 284.95 173.746 285.896 173.746Z" fill="none" opacity="1" stroke="#000000" stroke-linecap="butt" stroke-linejoin="miter" stroke-width="1.5"/>
<path d="M119.891 242.543L126.396 242.638C126.396 242.638 126.385 248.38 126.396 250.915C126.403 252.559 128.467 252.563 128.467 252.563L181.885 252.193C181.885 252.193 184.089 252.012 184.13 249.949C184.183 247.252 184.191 242.543 184.191 242.543L190.673 242.543C201.385 242.543 210.068 251.104 210.068 261.665L210.068 451.749C210.068 462.31 201.385 470.871 190.673 470.871L119.891 470.871C109.179 470.871 100.496 462.31 100.496 451.749L100.738 357.368L100.496 261.665C100.496 251.104 109.179 242.543 119.891 242.543Z" fill="#ffffff" fill-opacity="0.701739" fill-rule="nonzero" opacity="1" stroke="none"/>
<path d="M-3.5245 473.908L1003.52 473.32" fill="none" opacity="1" stroke="#000000" stroke-linecap="butt" stroke-linejoin="miter" stroke-width="1.5"/>
<path d="M902.922 140.724C902.922 128.782 912.518 119.101 924.354 119.101C936.19 119.101 945.785 128.782 945.785 140.724C945.785 152.666 936.19 162.348 924.354 162.348C912.518 162.348 902.922 152.666 902.922 140.724Z" fill="#ffb6b7" fill-rule="nonzero" opacity="1" stroke="#ffb6b7" stroke-linecap="butt" stroke-linejoin="miter" stroke-width="0.858891"/>
<path d="M909.502 117.364C910.168 117.01 908.63 115.048 910.065 115.029C911.945 115.005 914.215 115.238 914.814 115.19C916.827 115.029 915.82 113.049 920.127 113.017C924.691 112.983 924.518 112.539 929.142 113.258C931.811 113.674 933.208 115.721 935.26 116.317C938.067 117.134 939.929 121.471 940.445 121.987C942.826 124.367 942.291 123.257 944.436 122.998C946.631 122.733 948.944 123.562 948.944 123.562C948.944 123.562 951.233 124.681 952.26 128.987C953.286 133.294 953.049 140.787 953.049 140.787L950.151 147.871C950.151 148.982 947.215 154.874 946.046 154.874C946.046 154.874 941.055 156.162 941.941 154.149C942.826 152.137 942.585 147.915 942.585 146.019C942.585 143.334 942.129 144.612 940.303 143.427C938.142 142.024 935.162 145.345 933.408 144.973C930.619 144.381 929.625 139.821 929.625 139.821C929.625 139.821 927.912 132.82 927.291 132.818C926.921 132.817 922.194 136.671 920.932 136.843C918.26 137.208 909.582 136.924 909.582 136.924C909.582 136.924 907.409 136.582 905.558 135.394C903.706 134.207 903.107 133.626 902.177 132.175C901.83 131.634 901.773 128.581 904.028 126.701C905.96 125.091 906.982 124.909 907.57 124.206C908.212 123.437 908.052 121.004 907.892 119.778C907.851 119.467 905.075 119.577 905.477 118.974C905.88 118.37 908.904 117.681 909.502 117.364Z" fill="#353145" fill-rule="nonzero" opacity="1" stroke="#353145" stroke-linecap="butt" stroke-linejoin="miter" stroke-width="0.858891"/>
<path d="M927.833 454.249L939.313 454.249C939.342 454.249 939.365 454.273 939.365 454.302L939.365 462.559C939.365 462.588 939.342 462.611 939.313 462.611L927.833 462.611C927.804 462.611 927.78 462.588 927.78 462.559L927.78 454.302C927.78 454.273 927.804 454.249 927.833 454.249Z" fill="#ffb4b9" fill-rule="nonzero" opacity="1" stroke="#ffb4b9" stroke-linecap="butt" stroke-linejoin="miter" stroke-width="0.858891"/>
<path d="M879.594 454.97L891.244 454.97C891.271 454.97 891.293 454.992 891.293 455.019L891.293 462.446C891.293 462.473 891.271 462.495 891.244 462.495L879.594 462.495C879.567 462.495 879.546 462.473 879.546 462.446L879.546 455.019C879.546 454.992 879.567 454.97 879.594 454.97Z" fill="#ffb4b9" fill-rule="nonzero" opacity="1" stroke="#ffb4b9" stroke-linecap="butt" stroke-linejoin="miter" stroke-width="0.858891"/>
<path d="M871.514 462.873C871.514 462.873 882.761 462.684 888.797 462.779C894.833 462.874 894.533 462.702 894.538 463.062C894.571 465.423 894.601 466.672 894.57 469.526C894.538 472.381 894.512 474.072 894.512 474.072L864.398 474.477C863.23 474.477 862.491 474.043 862.491 472.969C862.491 472.969 862.402 470.302 863.043 469.286C863.561 468.466 865.057 467.35 865.057 467.35C865.057 467.35 870.346 462.873 871.514 462.873Z" fill="#2f2e3f" fill-rule="nonzero" opacity="1" stroke="#352b41" stroke-linecap="butt" stroke-linejoin="miter" stroke-width="0.858891"/>
<path d="M920.522 462.97C920.522 462.97 931.769 462.781 937.805 462.876C943.841 462.971 943.542 462.799 943.547 463.159C943.579 465.52 943.61 466.769 943.578 469.623C943.546 472.478 943.52 474.169 943.52 474.169L913.406 474.574C912.238 474.574 911.499 474.14 911.499 473.066C911.499 473.066 911.41 470.398 912.051 469.383C912.569 468.563 914.066 467.447 914.066 467.447C914.066 467.447 919.354 462.97 920.522 462.97Z" fill="#2f2e3f" fill-rule="nonzero" opacity="1" stroke="#352b41" stroke-linecap="butt" stroke-linejoin="miter" stroke-width="0.858891"/>
<path d="M879.758 275.661C886.682 284.509 920.347 292.19 938.99 288.051C957.448 283.952 950.509 286.482 950.509 286.482C951.052 286.482 950.952 289.918 950.952 290.91L946.819 370.753L943.378 451.61C943.378 452.602 942.938 453.406 942.395 453.406C942.395 453.406 934.14 452.724 921.547 452.231C920.311 452.182 922.64 404.202 920.687 389.464C916.787 360.016 917.102 339.385 912.287 330.866C911.594 329.64 904.703 348.075 897.635 370.552C895.866 376.177 893.576 453.406 893.576 453.406L874.877 453.406C874.334 453.406 873.894 452.602 873.894 451.61C873.894 451.61 871.908 403.393 870.317 367.542C869.687 353.356 876.73 310.006 877.902 291.379C878.064 288.81 877.835 287.586 878.149 282.526C878.464 277.447 877.522 272.803 879.758 275.661Z" fill="#504d59" fill-rule="nonzero" opacity="1" stroke="#4e4e59" stroke-linecap="butt" stroke-linejoin="miter" stroke-width="0.858891"/>
<path d="M910.359 173.58C913.475 171.916 912.942 169.977 915.914 168.593C917.739 167.743 933.149 166.785 940.012 167.933C943.488 168.515 941.657 172.842 945.576 175.602C946.327 176.131 947.285 176.778 948.189 177.032C951.696 178.019 951.2 178.217 955.686 178.972C960.172 179.727 961.997 179.347 965.965 179.983C970.455 180.703 971.063 180.427 973.21 183.859C980.329 195.237 986.4 215.046 993.161 230.053C993.291 230.341 993.584 233.53 992.335 235.39C984.394 247.214 972.695 264.758 965.376 274.85C960.473 281.611 953.083 267.394 953.328 266.455C954.67 261.328 967.168 240.404 967.168 240.404C967.168 240.404 971.145 234.718 970.586 233.97C966.708 228.777 959.081 221.562 959.081 221.562C959.081 221.562 955.293 246.357 953.103 264.651C951.718 276.21 951.761 285.18 951.298 285.18C951.298 285.18 942.159 286.526 932.906 288.166C916.403 291.09 879.793 279.706 879.333 272.885C878.523 260.869 882.429 241 882.429 241C882.429 241 879.298 245.355 877.395 247.176C876.026 248.485 874.158 247.525 874.158 247.525C874.158 247.525 846.201 233.793 844.078 229.877C843.005 227.898 849.532 215.811 849.532 215.811C849.532 215.811 860.338 218.676 865.456 219.516C869.229 220.134 869.986 219.288 869.986 219.288C869.986 219.288 879.834 192.221 884.484 181.981C885.596 179.531 889.356 178.685 889.356 178.685L895.002 178.733C895.002 178.733 905.234 176.317 910.359 173.58Z" fill="#e3ccb3" fill-rule="nonzero" opacity="1" stroke="#e3ccb3" stroke-linecap="butt" stroke-linejoin="miter" stroke-width="0.858891"/>
<path d="M937.975 285.807C937.975 285.807 934.532 277.359 941.872 275.989C945.382 275.334 945.43 277.385 948.077 275.71C950.725 274.035 952.462 269.288 952.462 269.288C952.48 269.266 952.513 269.262 952.536 269.279C952.536 269.279 957.953 272.513 960.159 274.34C962.364 276.168 961.376 276.566 961.358 276.589C961.358 276.589 956.214 282.234 952.814 285.133C949.414 288.031 951.281 288.557 949.966 289.554C947.866 291.146 946.463 291.222 944.196 291.203C941.929 291.184 942.453 290.828 940.898 289.479C939.343 288.13 937.975 285.807 937.975 285.807Z" fill="#ffb6b6" fill-rule="nonzero" opacity="1" stroke="#ffb6b6" stroke-linecap="butt" stroke-linejoin="miter" stroke-width="0.858891"/>
<path d="M828.914 210.412C831.828 209.694 833.666 209.28 836.144 210.455C837.677 211.181 837.799 212.092 839.515 213.23C841.231 214.368 840.634 214.057 843.008 215.007C846.192 216.28 847.991 217.313 848.189 218.648C848.73 222.308 843.34 229.801 843.34 229.801C843.34 229.836 843.291 229.864 843.291 229.864C843.291 229.864 840.053 225.879 838.693 225.012C837.367 224.167 837.652 224.402 835.469 224.486C833.286 224.57 831.961 225.18 829.772 224.877C827.583 224.573 828.011 224.564 826.713 223.272C825.416 221.98 824.475 222.449 824.206 220.088C823.937 217.726 823.912 215.978 825.174 213.611C826.436 211.243 826 211.13 828.914 210.412Z" fill="#feb3b5" fill-rule="nonzero" opacity="1" stroke="#feb3b5" stroke-linecap="butt" stroke-linejoin="miter" stroke-width="0.858891"/>
<path d="M481.903 86.7942C481.903 86.7942 502.006 86.9221 512.68 86.8889C519.455 86.8679 525.096 89.6972 523.771 96.7659C521.375 109.546 515.2 140.938 515.2 140.938C515.2 140.938 589.896 87.098 593.786 87.0911C606.286 87.0688 718.624 86.7942 718.624 86.7942C727.946 86.7899 727.544 91.9452 727.327 94.3949L719.89 133.966L676.409 133.967L681.165 108.093L626.701 108.182L615.868 159.117L714.944 159.019C712.914 168.587 710.88 181.145 699.483 181.268C699.483 181.268 614.859 180.997 582.458 181.1C578.533 181.113 568.836 180.128 570.402 169.613C571.55 161.901 574.023 150.077 574.023 150.077L578.22 127.182C578.22 127.182 531.59 159.508 511.982 173.266C507.308 176.545 502.899 181.18 497.503 181.15C489.869 181.106 481.903 181.14 481.903 181.14C470.474 181.106 462.282 180.243 463.862 172.11L477.568 108.018L464.356 108.018C464.356 106.971 465.269 87.7718 481.903 86.7942Z" fill="#e12822" fill-rule="nonzero" opacity="1" stroke="#e12822" stroke-linecap="butt" stroke-linejoin="miter" stroke-width="0.858891"/>
<g fill="#353230" opacity="1" stroke="none">
<path clip-path="url(#TextBounds)" d="M459.214 224.234L459.293 224.234L473.57 205.074L479.976 205.074L474.742 233.785L468.726 233.785L473.101 213.941L473.023 213.941L457.652 233.785L451.5 233.785L456.773 205.074L462.769 205.074L459.214 224.234Z"/>
<path clip-path="url(#TextBounds)" d="M488.746 220.953L486.382 233.785L480.386 233.785L485.621 205.074L491.617 205.074L489.625 215.992L500.855 215.992L502.867 205.074L508.863 205.074L503.628 233.785L497.613 233.785L499.976 220.953L488.746 220.953Z"/>
<path clip-path="url(#TextBounds)" d="M511.988 205.074L532.339 205.074L531.421 210.016L524.664 210.016L520.347 233.785L514.351 233.785L518.668 210.016L511.07 210.016L511.988 205.074Z"/>
<path clip-path="url(#TextBounds)" d="M550.152 223.062C548.694 223.544 547.001 223.785 545.074 223.785L539.312 223.785L537.515 233.785L531.519 233.785L536.714 205.074L546.597 205.074C548.459 205.074 550.031 205.299 551.314 205.748C552.597 206.197 553.638 206.803 554.439 207.564C555.24 208.326 555.819 209.205 556.177 210.201C556.535 211.197 556.714 212.242 556.714 213.336C556.714 214.963 556.47 216.422 555.982 217.711C555.494 219 554.761 220.094 553.785 220.992C552.808 221.891 551.597 222.581 550.152 223.062ZM546.871 210.016L541.832 210.016L540.23 218.824L545.562 218.824C546.513 218.824 547.326 218.694 548.003 218.433C548.681 218.173 549.237 217.822 549.673 217.379C550.11 216.936 550.432 216.419 550.64 215.826C550.849 215.234 550.953 214.605 550.953 213.941C550.953 213.407 550.891 212.903 550.767 212.428C550.643 211.952 550.425 211.536 550.113 211.178C549.8 210.82 549.38 210.536 548.853 210.328C548.326 210.12 547.665 210.016 546.871 210.016Z"/>
<path clip-path="url(#TextBounds)" d="M578.96 205.074L582.593 233.785L576.675 233.785L576.148 228.141L566.031 228.141L563.277 233.785L556.91 233.785L571.949 205.074L578.96 205.074ZM575.679 223.18L574.507 211.07L574.429 211.07L568.472 223.18L575.679 223.18Z"/>
<path clip-path="url(#TextBounds)" d="M607.046 231.695C605.953 232.607 604.696 233.303 603.277 233.785C601.858 234.267 600.282 234.508 598.55 234.508C596.962 234.508 595.546 234.319 594.302 233.941C593.059 233.564 591.975 233.056 591.05 232.418C590.126 231.78 589.341 231.034 588.697 230.182C588.052 229.329 587.528 228.427 587.125 227.476C586.721 226.526 586.431 225.559 586.255 224.576C586.08 223.593 585.992 222.639 585.992 221.715C585.992 220.348 586.128 218.971 586.402 217.584C586.675 216.197 587.092 214.859 587.652 213.57C588.212 212.281 588.912 211.077 589.752 209.957C590.591 208.837 591.578 207.861 592.71 207.027C593.843 206.194 595.126 205.54 596.558 205.064C597.99 204.589 599.572 204.351 601.304 204.351C602.932 204.351 604.426 204.573 605.787 205.016C607.147 205.458 608.316 206.116 609.293 206.988C610.269 207.861 611.031 208.941 611.578 210.23C612.125 211.519 612.398 213.01 612.398 214.703L606.402 214.703C606.402 213.857 606.265 213.098 605.992 212.428C605.718 211.757 605.344 211.191 604.869 210.728C604.393 210.266 603.834 209.915 603.189 209.674C602.544 209.433 601.851 209.312 601.109 209.312C599.885 209.312 598.811 209.521 597.886 209.937C596.962 210.354 596.161 210.904 595.484 211.588C594.807 212.271 594.244 213.059 593.794 213.951C593.345 214.843 592.987 215.758 592.72 216.695C592.453 217.633 592.265 218.56 592.154 219.478C592.043 220.396 591.988 221.233 591.988 221.988C591.988 222.991 592.108 223.935 592.349 224.82C592.59 225.706 592.981 226.48 593.521 227.144C594.061 227.808 594.765 228.336 595.63 228.726C596.496 229.117 597.548 229.312 598.785 229.312C599.527 229.312 600.246 229.218 600.943 229.029C601.64 228.84 602.281 228.534 602.867 228.111C603.453 227.688 603.967 227.138 604.41 226.461C604.852 225.784 605.191 224.957 605.425 223.98L611.519 223.98C611.115 225.621 610.539 227.092 609.791 228.394C609.042 229.697 608.127 230.797 607.046 231.695Z"/>
<path clip-path="url(#TextBounds)" d="M640.464 208.668C641.102 209.527 641.623 210.429 642.027 211.373C642.431 212.317 642.72 213.284 642.896 214.273C643.072 215.263 643.16 216.22 643.16 217.144C643.16 218.512 643.023 219.889 642.75 221.275C642.476 222.662 642.059 224 641.5 225.289C640.94 226.578 640.24 227.782 639.4 228.902C638.56 230.022 637.574 230.999 636.441 231.832C635.308 232.665 634.026 233.32 632.593 233.795C631.161 234.27 629.579 234.508 627.847 234.508C626.246 234.508 624.826 234.319 623.589 233.941C622.352 233.564 621.268 233.056 620.337 232.418C619.406 231.78 618.619 231.034 617.974 230.182C617.33 229.329 616.809 228.427 616.412 227.476C616.015 226.526 615.728 225.559 615.552 224.576C615.377 223.593 615.289 222.639 615.289 221.715C615.289 220.348 615.425 218.971 615.699 217.584C615.972 216.197 616.389 214.859 616.949 213.57C617.509 212.281 618.209 211.077 619.048 209.957C619.888 208.837 620.875 207.861 622.007 207.027C623.14 206.194 624.423 205.54 625.855 205.064C627.287 204.589 628.869 204.351 630.601 204.351C632.19 204.351 633.606 204.54 634.849 204.918C636.093 205.295 637.177 205.803 638.101 206.441C639.026 207.079 639.813 207.822 640.464 208.668ZM637.164 216.871C637.164 215.543 636.981 214.404 636.617 213.453C636.252 212.503 635.757 211.721 635.132 211.109C634.507 210.497 633.788 210.045 632.974 209.752C632.16 209.459 631.304 209.312 630.406 209.312C629.182 209.312 628.108 209.521 627.183 209.937C626.259 210.354 625.458 210.904 624.781 211.588C624.104 212.271 623.541 213.059 623.091 213.951C622.642 214.843 622.284 215.758 622.017 216.695C621.75 217.633 621.561 218.56 621.451 219.478C621.34 220.396 621.285 221.233 621.285 221.988C621.285 223.303 621.467 224.439 621.832 225.396C622.196 226.353 622.691 227.138 623.316 227.75C623.941 228.362 624.66 228.814 625.474 229.107C626.288 229.4 627.144 229.547 628.043 229.547C629.266 229.547 630.341 229.338 631.265 228.922C632.19 228.505 632.99 227.952 633.668 227.262C634.345 226.572 634.908 225.784 635.357 224.898C635.806 224.013 636.164 223.101 636.431 222.164C636.698 221.226 636.887 220.299 636.998 219.381C637.108 218.463 637.164 217.626 637.164 216.871Z"/>
<path clip-path="url(#TextBounds)" d="M673.257 226.812C671.942 228.01 670.396 228.951 668.619 229.635C666.841 230.318 664.911 230.66 662.828 230.66L662.281 233.785L656.265 233.785L656.832 230.66C655.516 230.66 654.234 230.465 652.984 230.074C651.734 229.683 650.621 229.101 649.644 228.326C648.668 227.551 647.883 226.594 647.291 225.455C646.698 224.316 646.402 222.997 646.402 221.5C646.402 220.25 646.568 219.052 646.9 217.906C647.232 216.76 647.71 215.693 648.335 214.703C648.96 213.713 649.709 212.818 650.582 212.017C651.454 211.217 652.431 210.533 653.511 209.967C654.592 209.4 655.761 208.961 657.017 208.648C658.274 208.336 659.599 208.18 660.992 208.18L661.558 205.074L667.554 205.074L666.988 208.18C668.316 208.18 669.605 208.375 670.855 208.766C672.105 209.156 673.218 209.739 674.195 210.514C675.171 211.288 675.956 212.245 676.548 213.385C677.141 214.524 677.437 215.842 677.437 217.34C677.437 219.215 677.066 220.966 676.324 222.594C675.582 224.221 674.559 225.628 673.257 226.812ZM671.91 217.633C671.91 216.721 671.753 215.943 671.441 215.299C671.128 214.654 670.712 214.124 670.191 213.707C669.67 213.29 669.068 212.975 668.384 212.76C667.701 212.545 666.981 212.405 666.226 212.34L663.589 226.5C664.787 226.5 665.894 226.239 666.91 225.719C667.925 225.198 668.804 224.517 669.546 223.678C670.289 222.838 670.868 221.887 671.285 220.826C671.701 219.765 671.91 218.7 671.91 217.633ZM652.378 223.551C652.691 224.189 653.108 224.716 653.628 225.133C654.149 225.549 654.752 225.868 655.435 226.09C656.119 226.311 656.838 226.448 657.593 226.5L660.23 212.34C658.967 212.457 657.824 212.782 656.802 213.316C655.78 213.85 654.908 214.527 654.185 215.348C653.462 216.168 652.903 217.086 652.505 218.101C652.108 219.117 651.91 220.159 651.91 221.226C651.91 222.138 652.066 222.913 652.378 223.551Z"/>
<path clip-path="url(#TextBounds)" d="M680.914 205.074L701.265 205.074L700.347 210.016L693.589 210.016L689.273 233.785L683.277 233.785L687.593 210.016L679.996 210.016L680.914 205.074Z"/>
</g>
<path d="M245.778 265.197C245.778 265.197 257.876 265.273 264.3 265.253C268.377 265.241 271.772 266.919 270.974 271.112C269.533 278.692 265.816 297.311 265.816 297.311C265.816 297.311 308.764 265.381 313.109 265.373C317.332 265.366 388.236 265.197 388.236 265.197C393.846 265.195 393.604 268.252 393.474 269.705L388.998 293.176L362.867 293.238L365.693 277.83L332.917 277.883L326.398 308.093L386.022 308.036C384.8 313.711 383.576 321.159 376.717 321.232C376.717 321.232 325.791 321.071 306.292 321.133C303.93 321.14 298.095 320.556 299.037 314.319C299.727 309.745 301.216 302.732 301.216 302.732L303.742 289.152C303.742 289.152 275.68 308.326 263.88 316.486C261.067 318.43 258.414 321.18 255.166 321.162C250.572 321.136 245.778 321.156 245.778 321.156C238.9 321.136 233.97 320.624 234.921 315.8L243.17 277.786L235.218 277.786C235.218 277.165 235.768 265.777 245.778 265.197Z" fill="#e12822" fill-rule="nonzero" opacity="1" stroke="#e12822" stroke-linecap="butt" stroke-linejoin="miter" stroke-width="0.858891"/>
<g fill="#353230" opacity="1" stroke="none">
<path clip-path="url(#TextBounds_2)" d="M232.634 346.665L232.68 346.665L241.122 335.337L244.91 335.337L241.815 352.312L238.258 352.312L240.845 340.58L240.798 340.58L231.71 352.312L228.073 352.312L231.19 335.337L234.736 335.337L232.634 346.665Z"/>
<path clip-path="url(#TextBounds_2)" d="M250.095 344.725L248.697 352.312L245.152 352.312L248.247 335.337L251.792 335.337L250.614 341.792L257.254 341.792L258.444 335.337L261.989 335.337L258.894 352.312L255.337 352.312L256.735 344.725L250.095 344.725Z"/>
<path clip-path="url(#TextBounds_2)" d="M263.837 335.337L275.87 335.337L275.327 338.258L271.331 338.258L268.779 352.312L265.234 352.312L267.786 338.258L263.294 338.258L263.837 335.337Z"/>
<path clip-path="url(#TextBounds_2)" d="M286.402 345.973C285.539 346.257 284.539 346.4 283.399 346.4L279.992 346.4L278.93 352.312L275.385 352.312L278.457 335.337L284.3 335.337C285.401 335.337 286.33 335.47 287.089 335.735C287.847 336.001 288.463 336.359 288.936 336.809C289.41 337.26 289.752 337.779 289.964 338.368C290.176 338.957 290.282 339.575 290.282 340.222C290.282 341.184 290.137 342.046 289.849 342.808C289.56 343.571 289.127 344.217 288.55 344.748C287.972 345.28 287.256 345.688 286.402 345.973ZM284.462 338.258L281.482 338.258L280.535 343.467L283.688 343.467C284.25 343.467 284.731 343.39 285.131 343.236C285.532 343.082 285.861 342.874 286.119 342.612C286.377 342.35 286.567 342.044 286.69 341.694C286.814 341.344 286.875 340.972 286.875 340.58C286.875 340.264 286.839 339.966 286.765 339.685C286.692 339.404 286.563 339.157 286.379 338.946C286.194 338.734 285.945 338.566 285.634 338.443C285.322 338.32 284.931 338.258 284.462 338.258Z"/>
<path clip-path="url(#TextBounds_2)" d="M303.435 335.337L305.583 352.312L302.084 352.312L301.772 348.975L295.79 348.975L294.162 352.312L290.397 352.312L299.289 335.337L303.435 335.337ZM301.495 346.042L300.802 338.882L300.756 338.882L297.234 346.042L301.495 346.042Z"/>
<path clip-path="url(#TextBounds_2)" d="M320.041 351.077C319.394 351.616 318.651 352.028 317.812 352.312C316.973 352.597 316.042 352.74 315.018 352.74C314.078 352.74 313.241 352.628 312.506 352.405C311.771 352.181 311.13 351.881 310.583 351.504C310.037 351.127 309.573 350.686 309.192 350.182C308.811 349.677 308.501 349.144 308.262 348.582C308.023 348.02 307.852 347.449 307.748 346.867C307.644 346.286 307.592 345.722 307.592 345.176C307.592 344.367 307.673 343.553 307.835 342.733C307.996 341.913 308.243 341.122 308.574 340.36C308.905 339.598 309.319 338.886 309.815 338.224C310.312 337.562 310.895 336.984 311.565 336.492C312.235 335.999 312.993 335.612 313.84 335.331C314.687 335.05 315.622 334.909 316.646 334.909C317.608 334.909 318.492 335.04 319.296 335.302C320.101 335.564 320.792 335.953 321.369 336.468C321.946 336.984 322.397 337.623 322.72 338.385C323.044 339.148 323.205 340.029 323.205 341.03L319.66 341.03C319.66 340.53 319.579 340.081 319.417 339.685C319.256 339.288 319.034 338.953 318.753 338.68C318.472 338.407 318.141 338.199 317.76 338.056C317.379 337.914 316.969 337.843 316.53 337.843C315.807 337.843 315.172 337.966 314.625 338.212C314.078 338.459 313.605 338.784 313.205 339.188C312.804 339.592 312.471 340.058 312.206 340.585C311.94 341.113 311.728 341.654 311.571 342.208C311.413 342.762 311.301 343.311 311.236 343.853C311.17 344.396 311.138 344.891 311.138 345.337C311.138 345.93 311.209 346.488 311.351 347.012C311.494 347.535 311.725 347.993 312.044 348.386C312.364 348.779 312.779 349.09 313.291 349.321C313.803 349.552 314.425 349.668 315.156 349.668C315.595 349.668 316.02 349.612 316.432 349.5C316.844 349.389 317.223 349.208 317.57 348.958C317.916 348.707 318.22 348.382 318.482 347.982C318.744 347.582 318.944 347.093 319.083 346.515L322.686 346.515C322.447 347.485 322.106 348.355 321.664 349.125C321.221 349.895 320.68 350.546 320.041 351.077Z"/>
<path clip-path="url(#TextBounds_2)" d="M339.8 337.462C340.177 337.97 340.485 338.503 340.724 339.061C340.962 339.619 341.134 340.191 341.237 340.776C341.341 341.361 341.393 341.927 341.393 342.473C341.393 343.282 341.313 344.096 341.151 344.916C340.989 345.736 340.743 346.527 340.412 347.289C340.081 348.051 339.667 348.763 339.17 349.425C338.674 350.087 338.091 350.665 337.421 351.158C336.751 351.65 335.993 352.037 335.146 352.318C334.299 352.599 333.364 352.74 332.34 352.74C331.393 352.74 330.554 352.628 329.822 352.405C329.091 352.181 328.45 351.881 327.9 351.504C327.349 351.127 326.883 350.686 326.502 350.182C326.121 349.677 325.813 349.144 325.578 348.582C325.344 348.02 325.174 347.449 325.07 346.867C324.966 346.286 324.914 345.722 324.914 345.176C324.914 344.367 324.995 343.553 325.157 342.733C325.319 341.913 325.565 341.122 325.896 340.36C326.227 339.598 326.641 338.886 327.137 338.224C327.634 337.562 328.217 336.984 328.887 336.492C329.557 335.999 330.315 335.612 331.162 335.331C332.009 335.05 332.944 334.909 333.968 334.909C334.907 334.909 335.744 335.021 336.48 335.244C337.215 335.468 337.856 335.768 338.402 336.145C338.949 336.522 339.415 336.961 339.8 337.462ZM337.848 342.312C337.848 341.527 337.74 340.853 337.525 340.291C337.309 339.729 337.017 339.267 336.647 338.905C336.278 338.543 335.852 338.276 335.371 338.103C334.89 337.929 334.384 337.843 333.853 337.843C333.129 337.843 332.494 337.966 331.947 338.212C331.4 338.459 330.927 338.784 330.527 339.188C330.126 339.592 329.793 340.058 329.528 340.585C329.262 341.113 329.05 341.654 328.893 342.208C328.735 342.762 328.623 343.311 328.558 343.853C328.492 344.396 328.46 344.891 328.46 345.337C328.46 346.115 328.567 346.787 328.783 347.352C328.998 347.918 329.291 348.382 329.661 348.744C330.03 349.106 330.455 349.373 330.937 349.547C331.418 349.72 331.924 349.806 332.455 349.806C333.179 349.806 333.814 349.683 334.361 349.437C334.907 349.191 335.381 348.863 335.781 348.455C336.181 348.047 336.514 347.582 336.78 347.058C337.046 346.535 337.257 345.996 337.415 345.441C337.573 344.887 337.685 344.338 337.75 343.796C337.815 343.253 337.848 342.758 337.848 342.312Z"/>
<path clip-path="url(#TextBounds_2)" d="M359.189 348.19C358.411 348.898 357.497 349.454 356.446 349.858C355.395 350.263 354.254 350.465 353.022 350.465L352.699 352.312L349.142 352.312L349.477 350.465C348.699 350.465 347.941 350.349 347.202 350.118C346.463 349.887 345.805 349.543 345.227 349.085C344.65 348.627 344.186 348.061 343.836 347.387C343.486 346.713 343.31 345.934 343.31 345.049C343.31 344.31 343.409 343.601 343.605 342.924C343.801 342.246 344.084 341.615 344.454 341.03C344.823 340.445 345.266 339.916 345.782 339.442C346.297 338.969 346.875 338.564 347.514 338.23C348.153 337.895 348.844 337.635 349.587 337.45C350.33 337.265 351.113 337.173 351.937 337.173L352.272 335.337L355.817 335.337L355.482 337.173C356.267 337.173 357.029 337.288 357.768 337.519C358.508 337.75 359.166 338.095 359.743 338.553C360.321 339.011 360.784 339.577 361.135 340.25C361.485 340.924 361.66 341.704 361.66 342.589C361.66 343.698 361.441 344.733 361.002 345.695C360.563 346.658 359.959 347.489 359.189 348.19ZM358.392 342.762C358.392 342.223 358.3 341.763 358.115 341.382C357.93 341.001 357.684 340.687 357.376 340.441C357.068 340.195 356.712 340.008 356.308 339.881C355.903 339.754 355.478 339.671 355.032 339.633L353.473 348.005C354.181 348.005 354.835 347.851 355.436 347.543C356.036 347.235 356.556 346.833 356.995 346.336C357.434 345.84 357.776 345.278 358.023 344.65C358.269 344.023 358.392 343.393 358.392 342.762ZM346.844 346.261C347.029 346.638 347.275 346.95 347.583 347.197C347.891 347.443 348.247 347.632 348.651 347.762C349.056 347.893 349.481 347.974 349.927 348.005L351.486 339.633C350.74 339.702 350.064 339.894 349.46 340.21C348.855 340.526 348.34 340.926 347.912 341.411C347.485 341.896 347.154 342.439 346.919 343.039C346.684 343.64 346.567 344.256 346.567 344.887C346.567 345.426 346.659 345.884 346.844 346.261Z"/>
<path clip-path="url(#TextBounds_2)" d="M363.716 335.337L375.749 335.337L375.206 338.258L371.21 338.258L368.658 352.312L365.113 352.312L367.665 338.258L363.173 338.258L363.716 335.337Z"/>
</g>
<path d="M116.309 321.868C116.309 321.868 123.384 321.912 127.14 321.901C129.525 321.893 131.51 322.871 131.044 325.313C130.201 329.728 128.028 340.572 128.028 340.572C128.028 340.572 153.003 322 155.686 321.97C156.644 321.96 199.623 321.868 199.623 321.868C202.903 321.866 202.762 323.647 202.685 324.494L200.068 338.164L184.919 337.98L186.439 329.225L167.27 329.256L163.458 346.852L198.327 346.818C197.613 350.123 196.897 354.462 192.886 354.504C192.886 354.504 163.103 354.41 151.699 354.446C150.318 354.45 146.905 354.11 147.456 350.478C147.86 347.814 148.73 343.729 148.73 343.729L150.207 335.82C150.207 335.82 133.796 346.987 126.895 351.74C125.25 352.872 123.698 354.474 121.799 354.463C119.112 354.448 116.309 354.46 116.309 354.46C112.286 354.448 109.403 354.15 109.959 351.34L114.783 329.2L110.133 329.2C110.133 328.838 110.454 322.206 116.309 321.868Z" fill="#e12822" fill-rule="nonzero" opacity="1" stroke="#e12822" stroke-linecap="butt" stroke-linejoin="miter" stroke-width="0.858891"/>
<g fill="#353230" opacity="1" stroke="none">
<path clip-path="url(#TextBounds_3)" d="M109.084 371.135L109.111 371.135L114.071 364.479L116.297 364.479L114.478 374.453L112.389 374.453L113.908 367.559L113.881 367.559L108.541 374.453L106.404 374.453L108.236 364.479L110.319 364.479L109.084 371.135Z"/>
<path clip-path="url(#TextBounds_3)" d="M119.343 369.995L118.522 374.453L116.439 374.453L118.258 364.479L120.341 364.479L119.649 368.272L123.55 368.272L124.249 364.479L126.332 364.479L124.514 374.453L122.424 374.453L123.245 369.995L119.343 369.995Z"/>
<path clip-path="url(#TextBounds_3)" d="M127.418 364.479L134.488 364.479L134.169 366.195L131.821 366.195L130.322 374.453L128.239 374.453L129.738 366.195L127.099 366.195L127.418 364.479Z"/>
<path clip-path="url(#TextBounds_3)" d="M140.676 370.728C140.169 370.895 139.581 370.979 138.912 370.979L136.91 370.979L136.286 374.453L134.203 374.453L136.008 364.479L139.441 364.479C140.088 364.479 140.634 364.557 141.08 364.713C141.525 364.869 141.887 365.079 142.165 365.344C142.443 365.608 142.645 365.914 142.769 366.26C142.893 366.606 142.956 366.969 142.956 367.349C142.956 367.914 142.871 368.421 142.701 368.869C142.532 369.316 142.277 369.696 141.938 370.009C141.599 370.321 141.178 370.56 140.676 370.728ZM139.536 366.195L137.785 366.195L137.229 369.255L139.081 369.255C139.412 369.255 139.694 369.21 139.93 369.12C140.165 369.029 140.358 368.907 140.51 368.753C140.661 368.599 140.773 368.42 140.845 368.214C140.918 368.008 140.954 367.79 140.954 367.559C140.954 367.374 140.933 367.198 140.89 367.033C140.847 366.868 140.771 366.723 140.662 366.599C140.554 366.475 140.408 366.376 140.225 366.304C140.041 366.231 139.812 366.195 139.536 366.195Z"/>
<path clip-path="url(#TextBounds_3)" d="M150.684 364.479L151.946 374.453L149.89 374.453L149.707 372.492L146.192 372.492L145.236 374.453L143.024 374.453L148.248 364.479L150.684 364.479ZM149.544 370.768L149.137 366.562L149.11 366.562L147.04 370.768L149.544 370.768Z"/>
<path clip-path="url(#TextBounds_3)" d="M160.441 373.727C160.061 374.043 159.625 374.285 159.132 374.453C158.638 374.62 158.091 374.704 157.49 374.704C156.938 374.704 156.446 374.638 156.014 374.507C155.582 374.376 155.205 374.2 154.884 373.978C154.563 373.756 154.29 373.497 154.066 373.201C153.842 372.905 153.66 372.591 153.52 372.261C153.38 371.931 153.279 371.595 153.218 371.254C153.157 370.912 153.127 370.581 153.127 370.26C153.127 369.785 153.174 369.306 153.269 368.825C153.364 368.343 153.509 367.878 153.703 367.43C153.898 366.982 154.141 366.564 154.433 366.175C154.725 365.786 155.067 365.447 155.461 365.157C155.854 364.868 156.3 364.64 156.797 364.475C157.295 364.31 157.845 364.228 158.446 364.228C159.012 364.228 159.531 364.304 160.003 364.458C160.476 364.612 160.882 364.841 161.221 365.144C161.561 365.447 161.825 365.822 162.015 366.27C162.205 366.718 162.3 367.236 162.3 367.824L160.217 367.824C160.217 367.53 160.17 367.266 160.075 367.033C159.98 366.8 159.85 366.604 159.685 366.443C159.519 366.282 159.325 366.16 159.101 366.077C158.877 365.993 158.636 365.951 158.378 365.951C157.953 365.951 157.58 366.023 157.259 366.168C156.938 366.313 156.659 366.504 156.424 366.741C156.189 366.979 155.993 367.253 155.837 367.562C155.681 367.872 155.557 368.19 155.464 368.516C155.371 368.841 155.306 369.164 155.267 369.483C155.229 369.802 155.21 370.092 155.21 370.355C155.21 370.703 155.252 371.031 155.335 371.338C155.419 371.646 155.555 371.915 155.742 372.146C155.93 372.377 156.174 372.56 156.475 372.695C156.776 372.831 157.141 372.899 157.571 372.899C157.829 372.899 158.079 372.866 158.321 372.801C158.563 372.735 158.785 372.629 158.989 372.482C159.193 372.335 159.371 372.144 159.525 371.908C159.679 371.673 159.796 371.386 159.878 371.047L161.995 371.047C161.855 371.617 161.654 372.128 161.394 372.58C161.134 373.032 160.817 373.415 160.441 373.727Z"/>
<path clip-path="url(#TextBounds_3)" d="M172.05 365.727C172.272 366.026 172.453 366.339 172.593 366.667C172.734 366.995 172.834 367.331 172.895 367.674C172.956 368.018 172.987 368.351 172.987 368.672C172.987 369.147 172.939 369.625 172.844 370.107C172.749 370.589 172.605 371.053 172.41 371.501C172.216 371.949 171.972 372.368 171.681 372.757C171.389 373.146 171.046 373.485 170.653 373.774C170.259 374.064 169.814 374.291 169.316 374.456C168.818 374.621 168.269 374.704 167.667 374.704C167.111 374.704 166.618 374.638 166.188 374.507C165.758 374.376 165.382 374.2 165.058 373.978C164.735 373.756 164.461 373.497 164.237 373.201C164.013 372.905 163.833 372.591 163.695 372.261C163.557 371.931 163.457 371.595 163.396 371.254C163.335 370.912 163.304 370.581 163.304 370.26C163.304 369.785 163.352 369.306 163.447 368.825C163.542 368.343 163.687 367.878 163.881 367.43C164.076 366.982 164.319 366.564 164.611 366.175C164.902 365.786 165.245 365.447 165.638 365.157C166.032 364.868 166.478 364.64 166.975 364.475C167.473 364.31 168.022 364.228 168.624 364.228C169.176 364.228 169.668 364.293 170.1 364.424C170.532 364.556 170.908 364.732 171.229 364.954C171.551 365.175 171.824 365.433 172.05 365.727ZM170.904 368.577C170.904 368.115 170.84 367.72 170.714 367.389C170.587 367.059 170.415 366.788 170.198 366.575C169.981 366.363 169.731 366.205 169.448 366.104C169.166 366.002 168.868 365.951 168.556 365.951C168.131 365.951 167.758 366.023 167.437 366.168C167.115 366.313 166.837 366.504 166.602 366.741C166.367 366.979 166.171 367.253 166.015 367.562C165.859 367.872 165.735 368.19 165.642 368.516C165.549 368.841 165.484 369.164 165.445 369.483C165.407 369.802 165.387 370.092 165.387 370.355C165.387 370.811 165.451 371.206 165.577 371.539C165.704 371.871 165.876 372.144 166.093 372.356C166.31 372.569 166.56 372.726 166.843 372.828C167.126 372.93 167.423 372.98 167.735 372.98C168.16 372.98 168.533 372.908 168.855 372.763C169.176 372.619 169.454 372.426 169.689 372.187C169.924 371.947 170.12 371.673 170.276 371.366C170.432 371.058 170.557 370.741 170.649 370.416C170.742 370.09 170.808 369.768 170.846 369.449C170.885 369.13 170.904 368.839 170.904 368.577Z"/>
<path clip-path="url(#TextBounds_3)" d="M183.443 372.031C182.986 372.447 182.449 372.773 181.831 373.011C181.214 373.248 180.543 373.367 179.819 373.367L179.63 374.453L177.54 374.453L177.736 373.367C177.28 373.367 176.834 373.299 176.4 373.164C175.966 373.028 175.579 372.826 175.24 372.556C174.9 372.287 174.628 371.955 174.422 371.559C174.216 371.163 174.113 370.705 174.113 370.185C174.113 369.751 174.171 369.335 174.286 368.936C174.402 368.538 174.568 368.167 174.785 367.824C175.002 367.48 175.262 367.169 175.565 366.891C175.868 366.613 176.208 366.375 176.583 366.178C176.958 365.982 177.364 365.829 177.801 365.72C178.237 365.612 178.698 365.557 179.182 365.557L179.378 364.479L181.461 364.479L181.265 365.557C181.726 365.557 182.174 365.625 182.608 365.761C183.042 365.897 183.429 366.099 183.768 366.368C184.108 366.637 184.38 366.97 184.586 367.366C184.792 367.762 184.895 368.22 184.895 368.74C184.895 369.391 184.766 369.999 184.508 370.565C184.25 371.13 183.895 371.619 183.443 372.031ZM182.975 368.841C182.975 368.525 182.92 368.255 182.812 368.031C182.703 367.807 182.558 367.622 182.377 367.478C182.197 367.333 181.987 367.223 181.75 367.149C181.512 367.074 181.262 367.025 181 367.003L180.084 371.922C180.5 371.922 180.885 371.831 181.238 371.651C181.59 371.47 181.896 371.233 182.154 370.941C182.411 370.65 182.613 370.32 182.757 369.951C182.902 369.582 182.975 369.212 182.975 368.841ZM176.189 370.897C176.298 371.119 176.443 371.302 176.624 371.447C176.805 371.592 177.014 371.703 177.251 371.779C177.489 371.856 177.739 371.904 178.001 371.922L178.917 367.003C178.478 367.043 178.081 367.157 177.726 367.342C177.371 367.527 177.068 367.763 176.817 368.048C176.566 368.333 176.371 368.652 176.234 369.004C176.096 369.357 176.027 369.719 176.027 370.09C176.027 370.407 176.081 370.676 176.189 370.897Z"/>
<path clip-path="url(#TextBounds_3)" d="M186.103 364.479L193.173 364.479L192.854 366.195L190.506 366.195L189.007 374.453L186.924 374.453L188.423 366.195L185.784 366.195L186.103 364.479Z"/>
</g>
</g>
</svg>
