<?xml version="1.0" encoding="UTF-8" standalone="no"?>
<!DOCTYPE svg PUBLIC "-//W3C//DTD SVG 1.1//EN" "http://www.w3.org/Graphics/SVG/1.1/DTD/svg11.dtd">
<!-- Created with Vectornator (http://vectornator.io/) -->
<svg height="100%" stroke-miterlimit="10" style="fill-rule:nonzero;clip-rule:evenodd;stroke-linecap:round;stroke-linejoin:round;" version="1.1" viewBox="0 0 620.757 101.92" width="100%" xml:space="preserve" xmlns="http://www.w3.org/2000/svg" xmlns:vectornator="http://vectornator.io" xmlns:xlink="http://www.w3.org/1999/xlink">
<defs>
<clipPath id="TextBounds">
<rect height="43.0414" width="496.235" x="62.3055" y="22.2921"/>
</clipPath>
</defs>
<g id="Слой-1" vectornator:layerName="Слой 1">
<path d="M55.7175 19.845L20.5125 19.845C12.2282 19.845 15.7342 19.845 5.5125 19.845C-5.8275 19.845 22.5225 59.535 22.5225 59.535C22.5225 59.535-5.8275 99.225 5.5125 99.225C11.1825 99.225 12.2282 99.225 20.5125 99.225L55.7175 99.225C64.0018 99.225 70.7175 92.5093 70.7175 84.225L70.7175 34.845C70.7175 26.5607 64.0018 19.845 55.7175 19.845Z" fill="#e12822" fill-rule="nonzero" opacity="1" stroke="#e12822" stroke-linecap="butt" stroke-linejoin="miter" stroke-width="0"/>
<path d="M564.832 19.845L600.038 19.845C608.322 19.845 604.816 19.845 615.038 19.845C626.377 19.845 598.028 59.535 598.028 59.535C598.028 59.535 626.377 99.225 615.038 99.225C609.367 99.225 608.322 99.225 600.038 99.225L564.832 99.225C556.548 99.225 549.832 92.5093 549.832 84.225L549.832 34.845C549.832 26.5607 556.548 19.845 564.832 19.845Z" fill="#e12822" fill-rule="nonzero" opacity="1" stroke="#e12822" stroke-linecap="butt" stroke-linejoin="miter" stroke-width="0"/>
<path d="M558.495 28.35L609.525 28.35" fill="none" opacity="1" stroke="#f1e2ce" stroke-dasharray="10.0" stroke-linecap="round" stroke-linejoin="miter" stroke-width="2"/>
<path d="M11.34 28.35L62.37 28.35" fill="none" opacity="1" stroke="#f1e2ce" stroke-dasharray="10.0" stroke-linecap="round" stroke-linejoin="miter" stroke-width="2"/>
<path d="M63.1144 2.835L557.751 2.835C565.99 2.835 572.67 11.3823 572.67 21.9259L572.67 63.1241C572.67 73.6677 565.99 82.215 557.751 82.215L63.1144 82.215C54.8746 82.215 48.195 73.6677 48.195 63.1241L48.195 21.9259C48.195 11.3823 54.8746 2.835 63.1144 2.835Z" fill="#e12822" fill-rule="nonzero" opacity="1" stroke="none"/>
<path d="M529.988 96.39L529.988 96.39L529.988 99.225L529.988 99.225L529.988 96.39Z" fill="#ac221d" fill-rule="nonzero" opacity="1" stroke="none"/>
<g fill="#f1e2ce" opacity="1" stroke="none">
<path clip-path="url(#TextBounds)" d="M139.978 39.5845C140.986 39.893 141.814 40.3277 142.463 40.8887C143.113 41.4497 143.591 42.1235 143.898 42.9102C144.205 43.6968 144.359 44.5722 144.361 45.5362C144.362 45.8897 144.331 46.3316 144.268 46.862C144.204 47.3924 144.072 47.9497 143.869 48.5339C143.667 49.1181 143.374 49.7025 142.989 50.2871C142.605 50.8717 142.095 51.3976 141.458 51.8649C140.822 52.3322 140.033 52.7142 139.091 53.0107C138.149 53.3073 137.024 53.457 135.718 53.4597L123.089 53.4864L127.313 29.8582L143.605 29.8238L142.891 33.8904L131.467 33.9145L130.53 39.1545L136.378 39.1422C137.771 39.1392 138.971 39.2867 139.978 39.5845ZM136.033 43.0312L129.815 43.0444L128.671 49.3935L134.665 49.3808C135.414 49.3792 136.084 49.3108 136.673 49.1757C137.261 49.0406 137.759 48.8253 138.165 48.5299C138.572 48.2344 138.884 47.8508 139.103 47.379C139.322 46.9073 139.43 46.334 139.429 45.6591C139.428 45.1557 139.344 44.7354 139.177 44.3984C139.01 44.0613 138.779 43.7913 138.484 43.5884C138.189 43.3855 137.833 43.2417 137.415 43.1569C136.997 43.072 136.536 43.0302 136.033 43.0312Z"/>
<path clip-path="url(#TextBounds)" d="M157.178 35.3866C158.324 35.3842 159.387 35.548 160.368 35.878C161.349 36.208 162.202 36.7096 162.926 37.3829C163.651 38.0562 164.22 38.9066 164.635 39.934C165.049 40.9615 165.258 42.1715 165.261 43.564C165.262 44.1745 165.191 44.8549 165.048 45.605C164.905 46.3551 164.674 47.1161 164.354 47.8881C164.034 48.66 163.616 49.408 163.098 50.1321C162.58 50.8563 161.946 51.5003 161.198 52.0642C160.449 52.6282 159.574 53.0826 158.574 53.4275C157.573 53.7724 156.43 53.9462 155.144 53.9489C154.041 53.9512 152.999 53.7794 152.018 53.4333C151.037 53.0872 150.182 52.5695 149.452 51.8802C148.722 51.1908 148.142 50.3351 147.711 49.3131C147.281 48.291 147.064 47.1105 147.061 45.7715C147.06 45.1503 147.131 44.4646 147.274 43.7145C147.417 42.9643 147.648 42.206 147.968 41.4394C148.287 40.6729 148.706 39.9275 149.224 39.2034C149.742 38.4793 150.376 37.8352 151.124 37.2713C151.873 36.7073 152.748 36.2529 153.748 35.908C154.749 35.5631 155.892 35.3893 157.178 35.3866ZM159.485 40.1859C159.153 39.8117 158.761 39.5314 158.311 39.3449C157.861 39.1584 157.373 39.0657 156.848 39.0668C156.163 39.0682 155.515 39.2276 154.905 39.5449C154.295 39.8622 153.76 40.3132 153.301 40.8979C152.842 41.4827 152.476 42.1904 152.205 43.0212C151.933 43.8519 151.799 44.7868 151.801 45.8258C151.803 46.5542 151.895 47.1967 152.078 47.7533C152.262 48.3099 152.517 48.7727 152.844 49.1415C153.172 49.5104 153.558 49.7881 154.003 49.9746C154.448 50.1611 154.933 50.2538 155.458 50.2527C156.143 50.2513 156.791 50.0946 157.401 49.7826C158.011 49.4707 158.548 49.0224 159.013 48.4376C159.478 47.8528 159.846 47.1451 160.117 46.3144C160.388 45.4836 160.523 44.5488 160.521 43.5097C160.519 42.7706 160.427 42.1254 160.244 41.5742C160.06 41.0229 159.808 40.5602 159.485 40.1859Z"/>
<path clip-path="url(#TextBounds)" d="M170.167 53.6761C169.599 53.838 168.93 53.9198 168.159 53.9214C167.677 53.9224 167.208 53.8966 166.753 53.844C166.297 53.7914 165.834 53.696 165.362 53.5578L166.078 49.8768C166.196 49.9301 166.324 49.97 166.463 49.9965C166.603 50.023 166.763 50.036 166.946 50.0356C167.278 50.0349 167.583 49.9968 167.861 49.9212C168.14 49.8456 168.394 49.6978 168.623 49.4777C168.853 49.2577 169.061 48.9466 169.248 48.5445C169.435 48.1424 169.597 47.6092 169.735 46.9448L172.041 35.8694L186.695 35.8384L183.566 53.3586L178.955 53.3684L181.432 39.5451L175.873 39.5568L174.473 46.3081C174.314 47.069 174.155 47.787 173.996 48.4622C173.837 49.1373 173.65 49.7563 173.437 50.3192C173.224 50.882 172.974 51.3859 172.685 51.8311C172.397 52.2762 172.047 52.6546 171.635 52.9661C171.224 53.2776 170.734 53.5143 170.167 53.6761Z"/>
<path clip-path="url(#TextBounds)" d="M203.484 50.3762C203.025 51.0413 202.445 51.6316 201.744 52.1473C201.044 52.6629 200.22 53.0771 199.272 53.3897C198.325 53.7023 197.257 53.8599 196.068 53.8624C194.868 53.865 193.797 53.6717 192.853 53.2828C191.91 52.8938 191.113 52.3331 190.464 51.6007C189.814 50.8683 189.317 49.9776 188.972 48.9286C188.627 47.8796 188.453 46.6963 188.45 45.3788C188.449 44.6397 188.527 43.879 188.686 43.0967C188.845 42.3144 189.09 41.548 189.421 40.7975C189.751 40.047 190.165 39.3418 190.661 38.682C191.158 38.0222 191.749 37.4399 192.433 36.935C193.118 36.4301 193.891 36.0321 194.752 35.7411C195.614 35.45 196.575 35.3034 197.635 35.3011C198.632 35.299 199.585 35.4523 200.496 35.7611C201.408 36.0698 202.215 36.5528 202.918 37.2101C203.621 37.8673 204.179 38.7151 204.594 39.7532C205.009 40.7914 205.218 42.0335 205.221 43.4795C205.222 44.058 205.201 44.5615 205.159 44.99C205.118 45.4186 205.054 45.815 204.969 46.1794L193.063 46.2046C193.042 46.301 193.023 46.4162 193.008 46.5501C192.992 46.6841 192.984 46.8849 192.985 47.1527C192.986 47.5276 193.051 47.8944 193.18 48.2529C193.309 48.6115 193.508 48.9324 193.777 49.2157C194.045 49.499 194.386 49.7286 194.798 49.9045C195.211 50.0803 195.707 50.1677 196.285 50.1664C197.013 50.1649 197.65 49.9868 198.196 49.6322C198.742 49.2775 199.148 48.8536 199.414 48.3603L204.508 48.3495C204.284 49.0462 203.943 49.7218 203.484 50.3762ZM193.378 42.9743L200.688 42.9589L200.687 42.3001C200.686 41.9038 200.624 41.5049 200.5 41.1035C200.376 40.7021 200.179 40.3463 199.911 40.0363C199.643 39.7262 199.297 39.4725 198.873 39.2752C198.45 39.078 197.932 38.98 197.322 38.9813C196.722 38.9825 196.192 39.0988 195.732 39.3301C195.272 39.5614 194.882 39.8675 194.561 40.2484C194.24 40.6293 193.982 41.0584 193.784 41.5354C193.587 42.0125 193.452 42.4922 193.378 42.9743Z"/>
<path clip-path="url(#TextBounds)" d="M221.785 50.3375C221.325 51.0026 220.746 51.593 220.045 52.1086C219.344 52.6242 218.521 53.0384 217.573 53.351C216.626 53.6637 215.558 53.8212 214.369 53.8238C213.169 53.8263 212.097 53.6331 211.154 53.2441C210.211 52.8551 209.414 52.2944 208.764 51.562C208.115 50.8297 207.618 49.939 207.273 48.89C206.928 47.8409 206.754 46.6577 206.751 45.3401C206.749 44.601 206.828 43.8403 206.987 43.0581C207.146 42.2758 207.391 41.5094 207.721 40.7589C208.052 40.0083 208.465 39.3032 208.962 38.6434C209.459 37.9835 210.049 37.4012 210.734 36.8963C211.418 36.3914 212.191 35.9934 213.053 35.7024C213.915 35.4114 214.876 35.2647 215.936 35.2625C216.932 35.2604 217.886 35.4137 218.797 35.7224C219.708 36.0311 220.515 36.5141 221.218 37.1714C221.922 37.8287 222.48 38.6764 222.895 39.7145C223.309 40.7527 223.518 41.9948 223.521 43.4409C223.523 44.0193 223.502 44.5228 223.46 44.9514C223.418 45.3799 223.355 45.7764 223.27 46.1407L211.364 46.1659C211.343 46.2624 211.324 46.3775 211.309 46.5115C211.293 46.6454 211.285 46.8463 211.286 47.1141C211.286 47.489 211.352 47.8557 211.481 48.2143C211.61 48.5728 211.809 48.8938 212.077 49.1771C212.346 49.4603 212.686 49.6899 213.099 49.8658C213.512 50.0417 214.007 50.129 214.586 50.1278C215.314 50.1262 215.951 49.9481 216.497 49.5935C217.042 49.2389 217.448 48.8149 217.715 48.3216L222.809 48.3108C222.585 49.0076 222.244 49.6831 221.785 50.3375ZM211.679 42.9357L218.989 42.9202L218.988 42.2615C218.987 41.8651 218.925 41.4663 218.801 41.0648C218.677 40.6634 218.48 40.3077 218.212 39.9976C217.943 39.6875 217.597 39.4338 217.174 39.2366C216.75 39.0393 216.233 38.9413 215.623 38.9426C215.023 38.9439 214.493 39.0601 214.033 39.2914C213.573 39.5227 213.182 39.8288 212.862 40.2097C212.541 40.5907 212.282 41.0197 212.085 41.4968C211.888 41.9739 211.753 42.4535 211.679 42.9357Z"/>
<path clip-path="url(#TextBounds)" d="M246.809 30.859C247.022 30.4408 247.15 30.1299 247.192 29.9263L251 29.9182L246.101 53.2265L241.409 53.2364L244.781 37.1618L239.302 37.1733L239.955 34.0549C241.422 33.9875 242.455 33.8889 243.055 33.7591C244.019 33.5535 244.853 33.1447 245.559 32.5327C246.051 32.1139 246.467 31.556 246.809 30.859Z"/>
<path clip-path="url(#TextBounds)" d="M271.525 32.8474C272.279 34.9346 272.253 37.9017 271.447 41.7489C270.63 45.5961 269.408 48.5605 267.778 50.642C266.149 52.7235 263.851 53.7674 260.884 53.7737C257.917 53.7799 256.054 52.7448 255.294 50.6684C254.534 48.5919 254.563 45.6301 255.38 41.7829C256.186 37.9357 257.406 34.966 259.04 32.8737C260.675 30.7815 262.976 29.7323 265.943 29.726C268.91 29.7197 270.771 30.7602 271.525 32.8474ZM266.723 41.7589C267.307 38.9512 267.53 36.8727 267.393 35.5233C267.256 34.1739 266.508 33.5007 265.147 33.5035C263.787 33.5064 262.744 34.1835 262.018 35.5347C261.293 36.8859 260.639 38.9653 260.055 41.773C259.483 44.4521 259.267 46.5012 259.41 47.9202C259.552 49.3392 260.303 50.0472 261.664 50.0444C263.024 50.0415 264.064 49.3296 264.784 47.9088C265.504 46.488 266.151 44.438 266.723 41.7589Z"/>
<path clip-path="url(#TextBounds)" d="M283.105 53.4375C282.537 53.5994 281.868 53.6811 281.097 53.6828C280.615 53.6838 280.146 53.658 279.691 53.6054C279.235 53.5528 278.772 53.4574 278.3 53.3191L279.016 49.6381C279.133 49.6915 279.262 49.7314 279.401 49.7578C279.541 49.7843 279.701 49.7974 279.884 49.797C280.216 49.7963 280.521 49.7582 280.799 49.6826C281.077 49.607 281.332 49.4592 281.561 49.2391C281.791 49.019 281.999 48.708 282.186 48.3059C282.373 47.9038 282.535 47.3706 282.673 46.7061L284.979 35.6308L299.633 35.5998L296.504 53.12L291.893 53.1297L294.37 39.3064L288.811 39.3182L287.411 46.0695C287.252 46.8304 287.093 47.5484 286.934 48.2235C286.775 48.8987 286.588 49.5177 286.375 50.0805C286.162 50.6433 285.912 51.1473 285.623 51.5925C285.335 52.0376 284.985 52.4159 284.573 52.7274C284.162 53.0389 283.672 53.2756 283.105 53.4375Z"/>
<path clip-path="url(#TextBounds)" d="M316.422 50.1375C315.963 50.8026 315.383 51.393 314.682 51.9086C313.982 52.4243 313.158 52.8384 312.21 53.1511C311.263 53.4637 310.195 53.6213 309.006 53.6238C307.806 53.6263 306.735 53.4331 305.791 53.0441C304.848 52.6551 304.051 52.0945 303.402 51.3621C302.752 50.6297 302.255 49.739 301.91 48.69C301.565 47.641 301.391 46.4577 301.388 45.1402C301.387 44.4011 301.465 43.6404 301.624 42.8581C301.783 42.0758 302.028 41.3094 302.359 40.5589C302.689 39.8084 303.103 39.1032 303.599 38.4434C304.096 37.7836 304.687 37.2012 305.371 36.6963C306.056 36.1914 306.829 35.7935 307.69 35.5024C308.552 35.2114 309.513 35.0648 310.573 35.0625C311.57 35.0604 312.523 35.2137 313.434 35.5224C314.346 35.8311 315.153 36.3141 315.856 36.9714C316.559 37.6287 317.117 38.4764 317.532 39.5146C317.947 40.5527 318.155 41.7948 318.159 43.2409C318.16 43.8193 318.139 44.3228 318.097 44.7514C318.056 45.1799 317.992 45.5764 317.907 45.9408L306.001 45.9659C305.98 46.0624 305.961 46.1776 305.946 46.3115C305.93 46.4454 305.922 46.6463 305.923 46.9141C305.924 47.289 305.989 47.6557 306.118 48.0143C306.247 48.3729 306.446 48.6938 306.715 48.9771C306.983 49.2604 307.323 49.49 307.736 49.6658C308.149 49.8417 308.645 49.929 309.223 49.9278C309.951 49.9263 310.588 49.7482 311.134 49.3935C311.68 49.0389 312.086 48.6149 312.352 48.1216L317.446 48.1109C317.222 48.8076 316.881 49.4832 316.422 50.1375ZM306.316 42.7357L313.626 42.7203L313.625 42.0615C313.624 41.6652 313.562 41.2663 313.438 40.8649C313.314 40.4634 313.117 40.1077 312.849 39.7976C312.581 39.4875 312.235 39.2339 311.811 39.0366C311.387 38.8393 310.87 38.7413 310.26 38.7426C309.66 38.7439 309.13 38.8602 308.67 39.0914C308.21 39.3227 307.819 39.6288 307.499 40.0098C307.178 40.3907 306.92 40.8197 306.722 41.2968C306.525 41.7739 306.39 42.2535 306.316 42.7357Z"/>
<path clip-path="url(#TextBounds)" d="M321.275 35.5541L336.09 35.5228L335.439 39.2197L330.329 39.2305L327.868 53.0537L323.257 53.0635L325.734 39.2402L320.625 39.251L321.275 35.5541Z"/>
<path clip-path="url(#TextBounds)" d="M351.134 45.501L349.8 53.0074L345.205 53.0171L348.317 35.4969L352.928 35.4872L351.785 41.8202L358.148 41.8067L359.275 35.4738L363.886 35.464L360.758 52.9842L356.163 52.9939L357.497 45.4876L351.134 45.501Z"/>
<path clip-path="url(#TextBounds)" d="M376.217 38.7639C375.734 38.4865 375.059 38.3486 374.192 38.3505C373.495 38.3519 372.901 38.4978 372.409 38.7881C371.917 39.0783 371.613 39.5824 371.496 40.3003L366.981 40.3099C367.076 39.6134 367.297 38.9435 367.644 38.3C367.991 37.6566 368.48 37.0825 369.111 36.5777C369.752 36.0836 370.528 35.6856 371.438 35.3838C372.348 35.0819 373.402 34.9298 374.602 34.9272C375.695 34.9249 376.664 35.0407 377.511 35.2746C378.358 35.5084 379.074 35.8443 379.658 36.2823C380.243 36.7202 380.689 37.2495 380.995 37.8701C381.302 38.4908 381.456 39.1813 381.458 39.9419C381.458 40.2846 381.438 40.6301 381.395 40.9784C381.353 41.3266 381.301 41.6828 381.237 42.0472L379.872 49.8428C379.808 50.175 379.771 50.4375 379.761 50.6303C379.751 50.8232 379.746 51.0267 379.746 51.2409C379.747 51.5837 379.801 51.8701 379.909 52.1002C380.016 52.3303 380.14 52.5148 380.279 52.6538L380.28 52.943L375.395 52.9533L375.391 51.0413L375.327 51.0414C374.9 51.7493 374.283 52.3344 373.475 52.7967C372.667 53.259 371.706 53.4913 370.592 53.4937C369.832 53.4953 369.13 53.3816 368.487 53.1527C367.844 52.9237 367.286 52.5848 366.814 52.1359C366.341 51.687 365.971 51.1361 365.702 50.4833C365.432 49.8305 365.297 49.0809 365.295 48.2347C365.291 46.4566 365.867 45.0521 367.021 44.0214C368.176 42.9906 369.985 42.3387 372.448 42.0657L374.055 41.9017C374.494 41.8579 374.89 41.8062 375.243 41.7465C375.597 41.6869 375.899 41.5952 376.15 41.4715C376.402 41.3477 376.594 41.184 376.728 40.9802C376.861 40.7764 376.928 40.5084 376.927 40.1764C376.926 39.5123 376.689 39.0415 376.217 38.7639ZM370.455 49.2843C370.873 49.6262 371.404 49.7964 372.047 49.7951C372.572 49.794 373.075 49.6938 373.556 49.4946C374.038 49.2954 374.466 48.9893 374.84 48.5761C375.214 48.1629 375.521 47.6427 375.76 47.0156C376 46.3884 376.141 45.6464 376.182 44.7893C375.818 44.8865 375.405 44.9624 374.945 45.0169C374.484 45.0714 374.019 45.134 373.547 45.2046C373.076 45.2752 372.616 45.3619 372.166 45.4646C371.716 45.5673 371.32 45.7101 370.978 45.8929C370.636 46.0757 370.358 46.3147 370.144 46.6097C369.93 46.9047 369.824 47.2772 369.825 47.727C369.827 48.434 370.037 48.9531 370.455 49.2843Z"/>
<path clip-path="url(#TextBounds)" d="M409.006 36.3167C409.413 36.68 409.781 37.1345 410.109 37.6801C410.437 38.2257 410.698 38.8705 410.893 39.6146C411.087 40.3586 411.185 41.2234 411.187 42.2088C411.189 42.8622 411.134 43.5908 411.023 44.3944C410.912 45.198 410.727 46.0151 410.466 46.8458C410.205 47.6765 409.862 48.486 409.435 49.2742C409.008 50.0624 408.482 50.7625 407.856 51.3744C407.231 51.9862 406.496 52.4805 405.65 52.8572C404.805 53.2339 403.836 53.4234 402.743 53.4257C402.015 53.4273 401.377 53.3161 400.831 53.0924C400.284 52.8686 399.817 52.5777 399.431 52.2196C399.044 51.8616 398.733 51.4606 398.496 51.0165C398.26 50.5725 398.093 50.1256 397.995 49.676L397.931 49.6761L396.121 59.8828L391.542 59.8925L395.893 35.3964L400.038 35.3876L399.29 38.7152L399.354 38.7793C399.994 37.5033 400.782 36.5322 401.718 35.8661C402.654 35.2 403.829 34.8655 405.243 34.8625C405.596 34.8617 405.987 34.9064 406.416 34.9966C406.845 35.0867 407.279 35.2384 407.718 35.4517C408.158 35.6651 408.587 35.9534 409.006 36.3167ZM406.64 42.2184C406.639 41.6614 406.555 41.1555 406.388 40.7006C406.221 40.2457 405.992 39.8579 405.703 39.5372C405.413 39.2164 405.069 38.9708 404.673 38.8002C404.276 38.6297 403.853 38.5449 403.403 38.5458C402.685 38.5473 402.07 38.6959 401.556 38.9916C401.042 39.2872 400.612 39.6631 400.265 40.119C399.918 40.575 399.638 41.0817 399.425 41.6392C399.212 42.1967 399.049 42.7353 398.938 43.255C398.827 43.7748 398.755 44.2435 398.724 44.6614C398.693 45.0792 398.677 45.3791 398.678 45.5612C398.679 46.2789 398.766 46.8893 398.939 47.3924C399.111 47.8955 399.342 48.3074 399.632 48.6281C399.922 48.9489 400.263 49.1811 400.654 49.3249C401.045 49.4687 401.466 49.5401 401.916 49.5391C402.494 49.5379 403.011 49.427 403.465 49.2065C403.92 48.9859 404.324 48.6905 404.677 48.3202C405.029 47.9499 405.328 47.5208 405.574 47.0329C405.819 46.545 406.022 46.0304 406.181 45.4892C406.341 44.9479 406.457 44.396 406.531 43.8335C406.605 43.2709 406.641 42.7326 406.64 42.2184Z"/>
<path clip-path="url(#TextBounds)" d="M426.563 41.7425C427.26 41.9553 427.825 42.2674 428.26 42.6789C428.695 43.0904 429.012 43.5878 429.211 44.1712C429.41 44.7545 429.511 45.4158 429.512 46.1549C429.514 46.9047 429.393 47.6762 429.148 48.4693C428.903 49.2625 428.503 49.9837 427.947 50.633C427.392 51.2822 426.667 51.814 425.774 52.2282C424.88 52.6425 423.785 52.851 422.489 52.8538L412.816 52.8742L415.961 35.354L420.636 35.3441L419.525 41.436L424.04 41.4265C425.025 41.4244 425.866 41.5298 426.563 41.7425ZM430.844 52.8361L433.972 35.3159L438.568 35.3062L435.455 52.8264L430.844 52.8361ZM423.292 44.9147C422.938 44.8726 422.542 44.8521 422.103 44.853L418.921 44.8597L418.063 49.4408L421.695 49.4331C422.798 49.4307 423.619 49.1773 424.159 48.6727C424.699 48.1681 424.968 47.5302 424.967 46.759C424.966 46.3412 424.898 46.0066 424.764 45.7552C424.629 45.5037 424.439 45.3113 424.192 45.1779C423.945 45.0446 423.645 44.9568 423.292 44.9147Z"/>
<path clip-path="url(#TextBounds)" d="M446.189 45.3002L444.855 52.8065L440.26 52.8162L443.372 35.2961L447.983 35.2863L446.84 41.6193L453.202 41.6059L454.33 35.2729L458.941 35.2632L455.813 52.7834L451.218 52.7931L452.551 45.2867L446.189 45.3002Z"/>
<path clip-path="url(#TextBounds)" d="M467.086 42.396L467.151 42.3959L474.928 35.2294L481.243 35.2161L472.469 42.6096L478.163 52.7361L472.796 52.7475L468.924 45.3164L466.165 47.5235L465.228 52.7635L460.617 52.7732L463.745 35.253L468.341 35.2433L467.086 42.396Z"/>
<path clip-path="url(#TextBounds)" d="M495.574 49.759C495.114 50.4241 494.535 51.0145 493.834 51.5301C493.134 52.0457 492.31 52.4599 491.362 52.7725C490.415 53.0852 489.347 53.2427 488.158 53.2453C486.958 53.2478 485.887 53.0546 484.943 52.6656C484 52.2766 483.203 51.7159 482.553 50.9835C481.904 50.2512 481.407 49.3605 481.062 48.3115C480.717 47.2624 480.543 46.0792 480.54 44.7616C480.538 44.0225 480.617 43.2618 480.776 42.4796C480.935 41.6973 481.18 40.9309 481.51 40.1803C481.841 39.4298 482.254 38.7247 482.751 38.0649C483.248 37.405 483.838 36.8227 484.523 36.3178C485.207 35.8129 485.98 35.4149 486.842 35.1239C487.704 34.8329 488.665 34.6862 489.725 34.684C490.721 34.6819 491.675 34.8352 492.586 35.1439C493.497 35.4526 494.305 35.9356 495.008 36.5929C495.711 37.2502 496.269 38.0979 496.684 39.136C497.099 40.1742 497.307 41.4163 497.31 42.8624C497.312 43.4408 497.291 43.9443 497.249 44.3728C497.207 44.8014 497.144 45.1979 497.059 45.5622L485.153 45.5874C485.132 45.6839 485.113 45.799 485.098 45.933C485.082 46.0669 485.074 46.2678 485.075 46.5355C485.076 46.9105 485.141 47.2772 485.27 47.6358C485.399 47.9943 485.598 48.3153 485.866 48.5986C486.135 48.8818 486.475 49.1114 486.888 49.2873C487.301 49.4632 487.796 49.5505 488.375 49.5493C489.103 49.5477 489.74 49.3696 490.286 49.015C490.831 48.6604 491.238 48.2364 491.504 47.7431L496.598 47.7323C496.374 48.4291 496.033 49.1046 495.574 49.759ZM485.468 42.3572L492.778 42.3417L492.777 41.683C492.776 41.2866 492.714 40.8877 492.59 40.4863C492.466 40.0849 492.269 39.7291 492.001 39.4191C491.732 39.109 491.386 38.8553 490.963 38.6581C490.539 38.4608 490.022 38.3628 489.412 38.3641C488.812 38.3654 488.282 38.4816 487.822 38.7129C487.362 38.9442 486.971 39.2503 486.651 39.6312C486.33 40.0122 486.071 40.4412 485.874 40.9183C485.677 41.3954 485.542 41.875 485.468 42.3572Z"/>
</g>
<path d="M546.575 2.835C554.815 2.835 561.481 11.3851 561.481 21.9288L561.481 63.1163C561.481 73.6599 554.815 82.21 546.575 82.21L557.512 82.21C565.797 82.21 572.512 75.4943 572.512 67.21L572.512 17.835C572.512 9.55073 565.797 2.835 557.512 2.835L546.575 2.835Z" fill="#bd2520" fill-rule="nonzero" opacity="1" stroke="#e12822" stroke-linecap="butt" stroke-linejoin="miter" stroke-width="0"/>
<path d="M73.9798 2.86856C65.74 2.86856 59.0735 11.4187 59.0735 21.9623L59.0735 63.1498C59.0735 73.6934 65.7399 82.2436 73.9798 82.2436L63.0423 82.2436C54.758 82.2436 48.0423 75.5279 48.0423 67.2436L48.0423 17.8686C48.0423 9.58429 54.758 2.86856 63.0423 2.86856L73.9798 2.86856Z" fill="#bd2520" fill-rule="nonzero" opacity="1" stroke="#e12822" stroke-linecap="butt" stroke-linejoin="miter" stroke-width="0"/>
<path d="M558.495 90.72L609.525 90.72" fill="none" opacity="1" stroke="#f1e2ce" stroke-dasharray="10.0" stroke-linecap="round" stroke-linejoin="miter" stroke-width="2"/>
<path d="M11.34 90.72L62.37 90.72" fill="none" opacity="1" stroke="#f1e2ce" stroke-dasharray="10.0" stroke-linecap="round" stroke-linejoin="miter" stroke-width="2"/>
<path d="M65.205 12.1987L555.66 12.1987" fill="none" opacity="1" stroke="#f1e2ce" stroke-dasharray="15.0" stroke-linecap="round" stroke-linejoin="miter" stroke-width="2"/>
<path d="M65.205 70.875L555.66 70.875" fill="none" opacity="1" stroke="#f1e2ce" stroke-dasharray="10.0" stroke-linecap="round" stroke-linejoin="miter" stroke-width="2"/>
</g>
</svg>
