<?xml version="1.0" encoding="UTF-8" standalone="no"?>
<!DOCTYPE svg PUBLIC "-//W3C//DTD SVG 1.1//EN" "http://www.w3.org/Graphics/SVG/1.1/DTD/svg11.dtd">
<!-- Created with Vectornator (http://vectornator.io/) -->
<svg height="100%" stroke-miterlimit="10" style="fill-rule:nonzero;clip-rule:evenodd;stroke-linecap:round;stroke-linejoin:round;" version="1.1" viewBox="0 0 419.58 419.58" width="100%" xml:space="preserve" xmlns="http://www.w3.org/2000/svg" xmlns:vectornator="http://vectornator.io" xmlns:xlink="http://www.w3.org/1999/xlink">
<defs>
<clipPath id="TextBounds">
<rect height="307.301" width="307.301" x="92.6991" y="32.699"/>
</clipPath>
</defs>
<clipPath id="ArtboardFrame">
<rect height="419.58" width="419.58" x="0" y="0"/>
</clipPath>
<g clip-path="url(#ArtboardFrame)" id="Слой-1" vectornator:layerName="Слой 1">
<path d="M120-2.84217e-14L420 300L420 420L-8.52651e-14-2.84217e-14L120-2.84217e-14Z" fill="#e12822" fill-rule="nonzero" opacity="1" stroke="#e12822" stroke-linecap="butt" stroke-linejoin="miter" stroke-width="0.858891"/>
<g fill="#f1e2ce" opacity="1" stroke="none">
<path clip-path="url(#TextBounds)" d="M124.167 57.6777C124.659 58.6094 124.936 59.5031 124.996 60.359C125.057 61.2149 124.917 62.0291 124.576 62.8017C124.235 63.5743 123.724 64.3014 123.042 64.9831C122.792 65.2331 122.457 65.5228 122.037 65.8523C121.616 66.1817 121.128 66.4809 120.571 66.7498C120.014 67.0187 119.393 67.2232 118.708 67.3633C118.022 67.5034 117.289 67.5129 116.509 67.3917C115.729 67.2705 114.902 66.9808 114.027 66.5226C113.152 66.0643 112.253 65.3732 111.329 64.4491L102.398 55.519L122.122 41.8399L133.642 53.3604L130.257 55.7236L122.179 47.6456L117.805 50.6791L121.94 54.8146C122.925 55.7993 123.667 56.7537 124.167 57.6777ZM118.941 57.3141L114.544 52.9173L109.238 56.587L113.476 60.8248C114.006 61.355 114.527 61.7811 115.038 62.103C115.549 62.4249 116.053 62.6256 116.549 62.7051C117.045 62.7847 117.538 62.7354 118.026 62.5574C118.515 62.3794 118.997 62.0519 119.475 61.5747C119.831 61.2187 120.069 60.8627 120.19 60.5067C120.312 60.1507 120.34 59.7966 120.276 59.4444C120.211 59.0922 120.062 58.7381 119.827 58.3821C119.592 58.0261 119.297 57.6701 118.941 57.3141Z"/>
<path clip-path="url(#TextBounds)" d="M139.278 66.9032C140.088 67.7136 140.722 68.5828 141.181 69.5106C141.639 70.4385 141.885 71.3966 141.919 72.3851C141.953 73.3735 141.753 74.3771 141.317 75.3958C140.881 76.4146 140.171 77.4163 139.187 78.4009C138.755 78.8327 138.223 79.2625 137.59 79.6905C136.958 80.1184 136.255 80.4914 135.483 80.8096C134.71 81.1277 133.885 81.3587 133.006 81.5026C132.128 81.6465 131.224 81.6522 130.296 81.5196C129.369 81.3871 128.429 81.0879 127.479 80.6221C126.528 80.1563 125.598 79.4689 124.69 78.56C123.909 77.7798 123.296 76.9202 122.849 75.981C122.402 75.0417 122.165 74.0703 122.139 73.0668C122.112 72.0632 122.309 71.0482 122.73 70.0219C123.15 68.9956 123.834 68.009 124.78 67.0622C125.22 66.6229 125.756 66.1893 126.388 65.7614C127.021 65.3334 127.721 64.9623 128.49 64.6479C129.259 64.3336 130.082 64.1045 130.961 63.9606C131.84 63.8167 132.743 63.811 133.671 63.9435C134.599 64.0761 135.538 64.3753 136.488 64.8411C137.439 65.3069 138.369 65.9943 139.278 66.9032ZM137.505 71.9249C137.536 71.425 137.458 70.9497 137.272 70.4991C137.087 70.0484 136.808 69.6375 136.437 69.2664C135.953 68.7816 135.383 68.4351 134.727 68.2268C134.072 68.0185 133.375 67.9579 132.637 68.045C131.898 68.1321 131.139 68.3726 130.359 68.7665C129.579 69.1603 128.821 69.7246 128.087 70.4593C127.572 70.9744 127.182 71.4932 126.916 72.0158C126.651 72.5384 126.504 73.0459 126.473 73.5383C126.443 74.0306 126.519 74.5002 126.701 74.9471C126.882 75.3939 127.159 75.803 127.53 76.1741C128.015 76.6589 128.583 77.0073 129.234 77.2194C129.886 77.4314 130.582 77.4958 131.325 77.4125C132.067 77.3292 132.828 77.0906 133.608 76.6967C134.388 76.3029 135.146 75.7386 135.881 75.0039C136.403 74.4813 136.795 73.9605 137.056 73.4417C137.318 72.9228 137.467 72.4173 137.505 71.9249Z"/>
<path clip-path="url(#TextBounds)" d="M135.483 89.0125C134.968 88.7247 134.438 88.3081 133.892 87.7627C133.551 87.4219 133.239 87.0716 132.955 86.7118C132.671 86.352 132.412 85.9563 132.177 85.5245L135.29 83.434C135.335 83.5552 135.398 83.6745 135.477 83.7919C135.557 83.9093 135.661 84.0324 135.79 84.1612C136.024 84.396 136.267 84.5853 136.517 84.7292C136.767 84.8732 137.051 84.9489 137.369 84.9565C137.687 84.9641 138.054 84.8921 138.471 84.7406C138.888 84.5891 139.38 84.3278 139.948 83.9567L149.423 77.7761L159.785 88.1377L145.163 98.2834L141.902 95.0227L153.445 87.0243L149.514 83.0932L143.743 86.8652C143.091 87.2894 142.47 87.6832 141.879 88.0468C141.289 88.4103 140.719 88.7152 140.169 88.9614C139.62 89.2075 139.086 89.3855 138.568 89.4954C138.049 89.6052 137.534 89.6241 137.022 89.5522C136.511 89.4802 135.998 89.3003 135.483 89.0125Z"/>
<path clip-path="url(#TextBounds)" d="M161.33 110.292C160.535 110.436 159.707 110.442 158.848 110.309C157.988 110.177 157.113 109.885 156.223 109.435C155.333 108.984 154.468 108.338 153.627 107.498C152.779 106.649 152.16 105.754 151.769 104.811C151.379 103.868 151.215 102.908 151.275 101.93C151.336 100.953 151.616 99.9725 152.116 98.9878C152.616 98.0032 153.332 97.045 154.263 96.1134C154.786 95.5908 155.381 95.1098 156.047 94.6705C156.714 94.2312 157.429 93.8638 158.194 93.5684C158.959 93.273 159.751 93.0685 160.569 92.9549C161.387 92.8413 162.216 92.8489 163.057 92.9776C163.898 93.1064 164.725 93.3734 165.54 93.7786C166.354 94.1838 167.136 94.7614 167.886 95.5112C168.59 96.2156 169.154 96.9996 169.579 97.8631C170.003 98.7265 170.23 99.6392 170.26 100.601C170.29 101.563 170.084 102.557 169.641 103.584C169.198 104.61 168.465 105.634 167.443 106.657C167.034 107.066 166.662 107.407 166.329 107.679C165.996 107.952 165.67 108.187 165.352 108.384L156.933 99.9649C156.85 100.018 156.755 100.086 156.649 100.169C156.543 100.253 156.395 100.389 156.206 100.578C155.941 100.844 155.727 101.148 155.564 101.493C155.401 101.838 155.314 102.205 155.303 102.595C155.292 102.985 155.369 103.388 155.536 103.805C155.702 104.222 155.99 104.634 156.399 105.043C156.914 105.559 157.49 105.884 158.126 106.021C158.762 106.157 159.349 106.146 159.887 105.986L163.489 109.588C162.837 109.921 162.118 110.156 161.33 110.292ZM159.444 97.9085L164.614 103.078L165.079 102.612C165.36 102.332 165.598 102.006 165.795 101.635C165.992 101.264 166.106 100.874 166.136 100.465C166.166 100.056 166.102 99.6316 165.943 99.1923C165.784 98.753 165.488 98.3175 165.057 97.8858C164.633 97.4616 164.176 97.1681 163.688 97.0053C163.199 96.8424 162.707 96.7818 162.211 96.8235C161.715 96.8651 161.228 96.9844 160.751 97.1814C160.274 97.3783 159.838 97.6207 159.444 97.9085Z"/>
<path clip-path="url(#TextBounds)" d="M174.271 123.233C173.475 123.377 172.648 123.383 171.788 123.25C170.929 123.118 170.054 122.826 169.164 122.375C168.274 121.925 167.408 121.279 166.568 120.438C165.719 119.59 165.1 118.694 164.71 117.751C164.32 116.808 164.155 115.848 164.216 114.871C164.277 113.894 164.557 112.913 165.057 111.928C165.557 110.944 166.272 109.986 167.204 109.054C167.727 108.531 168.321 108.05 168.988 107.611C169.654 107.172 170.37 106.804 171.135 106.509C171.9 106.214 172.692 106.009 173.51 105.896C174.328 105.782 175.157 105.79 175.998 105.918C176.838 106.047 177.666 106.314 178.48 106.719C179.294 107.125 180.076 107.702 180.826 108.452C181.531 109.156 182.095 109.94 182.519 110.804C182.943 111.667 183.171 112.58 183.201 113.542C183.231 114.504 183.025 115.498 182.582 116.524C182.139 117.55 181.406 118.575 180.383 119.597C179.974 120.006 179.603 120.347 179.27 120.62C178.937 120.893 178.611 121.127 178.293 121.324L169.874 112.906C169.791 112.959 169.696 113.027 169.59 113.11C169.484 113.193 169.336 113.33 169.147 113.519C168.882 113.784 168.668 114.089 168.505 114.434C168.342 114.778 168.255 115.146 168.244 115.536C168.232 115.926 168.31 116.329 168.476 116.746C168.643 117.162 168.931 117.575 169.34 117.984C169.855 118.499 170.431 118.825 171.067 118.961C171.703 119.098 172.29 119.086 172.828 118.927L176.429 122.529C175.778 122.862 175.058 123.097 174.271 123.233ZM172.385 110.849L177.554 116.019L178.02 115.553C178.3 115.273 178.539 114.947 178.736 114.576C178.933 114.205 179.046 113.814 179.077 113.405C179.107 112.996 179.043 112.572 178.884 112.133C178.724 111.694 178.429 111.258 177.997 110.826C177.573 110.402 177.117 110.109 176.628 109.946C176.14 109.783 175.647 109.722 175.151 109.764C174.655 109.806 174.169 109.925 173.691 110.122C173.214 110.319 172.779 110.561 172.385 110.849Z"/>
<path clip-path="url(#TextBounds)" d="M205.731 127.221C206.177 127.077 206.488 126.948 206.662 126.835L209.355 129.527L189.381 142.502L186.064 139.185L199.834 130.232L195.96 126.357L198.63 124.619C199.713 125.611 200.512 126.274 201.027 126.607C201.852 127.145 202.731 127.448 203.663 127.516C204.307 127.569 204.996 127.471 205.731 127.221Z"/>
<path clip-path="url(#TextBounds)" d="M221.761 146.138C220.815 148.145 218.694 150.22 215.399 152.364C212.097 154.5 209.133 155.725 206.509 156.039C203.884 156.354 201.523 155.462 199.425 153.364C197.327 151.265 196.746 149.215 197.681 147.211C198.616 145.208 200.735 143.138 204.038 141.002C207.332 138.859 210.298 137.628 212.934 137.31C215.57 136.992 217.936 137.882 220.035 139.98C222.133 142.078 222.708 144.131 221.761 146.138ZM212.059 149.024C214.46 147.456 216.09 146.147 216.95 145.098C217.81 144.049 217.758 143.044 216.797 142.082C215.835 141.12 214.619 140.858 213.15 141.298C211.68 141.737 209.745 142.741 207.344 144.309C205.041 145.793 203.437 147.086 202.532 148.188C201.627 149.291 201.656 150.322 202.617 151.284C203.579 152.246 204.818 152.481 206.333 151.989C207.848 151.497 209.756 150.508 212.059 149.024Z"/>
<path clip-path="url(#TextBounds)" d="M215.342 168.872C214.827 168.584 214.297 168.167 213.752 167.622C213.411 167.281 213.098 166.931 212.814 166.571C212.53 166.211 212.271 165.816 212.036 165.384L215.149 163.293C215.195 163.415 215.257 163.534 215.337 163.651C215.416 163.769 215.52 163.892 215.649 164.021C215.884 164.255 216.126 164.445 216.376 164.589C216.626 164.733 216.91 164.808 217.228 164.816C217.546 164.823 217.914 164.752 218.33 164.6C218.747 164.449 219.239 164.187 219.807 163.816L229.283 157.635L239.644 167.997L225.022 178.143L221.761 174.882L233.305 166.884L229.374 162.953L223.602 166.725C222.951 167.149 222.33 167.543 221.739 167.906C221.148 168.27 220.578 168.575 220.029 168.821C219.48 169.067 218.946 169.245 218.427 169.355C217.908 169.465 217.393 169.484 216.882 169.412C216.37 169.34 215.857 169.16 215.342 168.872Z"/>
<path clip-path="url(#TextBounds)" d="M241.189 190.152C240.394 190.296 239.567 190.301 238.707 190.169C237.847 190.036 236.973 189.745 236.083 189.294C235.193 188.843 234.327 188.198 233.486 187.357C232.638 186.509 232.019 185.613 231.629 184.67C231.239 183.727 231.074 182.767 231.135 181.79C231.195 180.813 231.475 179.832 231.975 178.847C232.475 177.863 233.191 176.904 234.123 175.973C234.645 175.45 235.24 174.969 235.906 174.53C236.573 174.091 237.289 173.723 238.054 173.428C238.819 173.132 239.61 172.928 240.428 172.814C241.246 172.701 242.076 172.708 242.916 172.837C243.757 172.966 244.585 173.233 245.399 173.638C246.213 174.043 246.995 174.621 247.745 175.371C248.449 176.075 249.014 176.859 249.438 177.722C249.862 178.586 250.089 179.499 250.12 180.461C250.15 181.422 249.943 182.417 249.5 183.443C249.057 184.469 248.324 185.494 247.302 186.516C246.893 186.925 246.522 187.266 246.189 187.539C245.855 187.811 245.53 188.046 245.211 188.243L236.793 179.824C236.709 179.877 236.615 179.946 236.509 180.029C236.403 180.112 236.255 180.248 236.065 180.438C235.8 180.703 235.586 181.008 235.424 181.352C235.261 181.697 235.174 182.064 235.162 182.454C235.151 182.845 235.229 183.248 235.395 183.664C235.562 184.081 235.85 184.494 236.259 184.903C236.774 185.418 237.349 185.744 237.986 185.88C238.622 186.016 239.209 186.005 239.747 185.846L243.348 189.447C242.697 189.781 241.977 190.016 241.189 190.152ZM239.303 177.768L244.473 182.937L244.939 182.472C245.219 182.191 245.458 181.866 245.655 181.494C245.851 181.123 245.965 180.733 245.995 180.324C246.026 179.915 245.961 179.491 245.802 179.052C245.643 178.612 245.348 178.177 244.916 177.745C244.492 177.321 244.036 177.028 243.547 176.865C243.058 176.702 242.566 176.641 242.07 176.683C241.574 176.725 241.087 176.844 240.61 177.041C240.133 177.238 239.697 177.48 239.303 177.768Z"/>
<path clip-path="url(#TextBounds)" d="M254.948 183.301L265.423 193.776L262.344 195.923L258.732 192.311L247.2 200.32L243.939 197.06L255.482 189.061L251.869 185.448L254.948 183.301Z"/>
<path clip-path="url(#TextBounds)" d="M268.968 211.477L262.708 215.829L259.459 212.579L274.069 202.422L277.33 205.683L272.036 209.341L276.535 213.84L281.818 210.171L285.079 213.431L270.456 223.577L267.207 220.328L273.467 215.976L268.968 211.477Z"/>
<path clip-path="url(#TextBounds)" d="M291.441 224.497C291.297 223.96 290.918 223.384 290.305 222.77C289.813 222.278 289.29 221.96 288.737 221.816C288.184 221.672 287.612 221.812 287.021 222.236L283.829 219.044C284.389 218.62 285.02 218.304 285.721 218.095C286.421 217.887 287.173 217.828 287.976 217.919C288.779 218.025 289.608 218.294 290.464 218.726C291.32 219.158 292.172 219.798 293.02 220.646C293.793 221.418 294.395 222.187 294.827 222.952C295.258 223.717 295.525 224.461 295.628 225.185C295.73 225.908 295.669 226.597 295.446 227.253C295.222 227.908 294.842 228.504 294.304 229.042C294.062 229.284 293.802 229.513 293.526 229.729C293.249 229.945 292.96 230.159 292.657 230.371L286.169 234.904C285.889 235.094 285.677 235.253 285.533 235.382C285.389 235.51 285.241 235.651 285.09 235.802C284.848 236.044 284.683 236.285 284.596 236.523C284.509 236.762 284.465 236.98 284.465 237.177L284.261 237.381L280.807 233.927L282.159 232.575L282.113 232.53C281.31 232.727 280.46 232.702 279.563 232.456C278.665 232.21 277.822 231.693 277.035 230.905C276.497 230.367 276.082 229.79 275.791 229.173C275.499 228.555 275.346 227.921 275.331 227.27C275.315 226.618 275.444 225.967 275.717 225.315C275.989 224.664 276.425 224.039 277.023 223.441C278.281 222.183 279.682 221.6 281.227 221.691C282.772 221.782 284.511 222.604 286.442 224.157L287.692 225.179C288.033 225.459 288.349 225.704 288.64 225.912C288.932 226.12 289.21 226.27 289.475 226.361C289.741 226.452 289.992 226.472 290.231 226.423C290.47 226.374 290.706 226.232 290.941 225.997C291.411 225.528 291.577 225.028 291.441 224.497ZM279.921 227.838C279.974 228.375 280.227 228.872 280.682 229.326C281.053 229.697 281.479 229.983 281.96 230.184C282.441 230.385 282.96 230.472 283.516 230.445C284.073 230.419 284.658 230.269 285.272 229.996C285.885 229.724 286.51 229.3 287.146 228.724C286.821 228.535 286.476 228.296 286.113 228.008C285.749 227.72 285.376 227.434 284.993 227.15C284.611 226.866 284.225 226.601 283.835 226.355C283.444 226.109 283.064 225.929 282.693 225.815C282.322 225.702 281.956 225.673 281.596 225.73C281.237 225.787 280.898 225.974 280.579 226.293C280.08 226.792 279.86 227.307 279.921 227.838Z"/>
<path clip-path="url(#TextBounds)" d="M316.311 246.005C316.341 246.55 316.279 247.131 316.124 247.749C315.968 248.366 315.696 249.006 315.306 249.669C314.916 250.331 314.372 251.011 313.675 251.708C313.213 252.17 312.658 252.645 312.011 253.134C311.363 253.622 310.653 254.067 309.881 254.469C309.108 254.87 308.292 255.198 307.432 255.452C306.573 255.705 305.705 255.827 304.83 255.815C303.956 255.804 303.086 255.631 302.223 255.298C301.36 254.965 300.541 254.412 299.769 253.639C299.254 253.124 298.883 252.594 298.656 252.049C298.428 251.503 298.305 250.968 298.286 250.441C298.267 249.915 298.332 249.411 298.479 248.93C298.627 248.449 298.826 248.016 299.076 247.629L299.03 247.584L290.521 253.503L287.283 250.265L307.711 236.063L310.642 238.995L307.756 240.812L307.756 240.903C309.112 240.456 310.356 240.33 311.488 240.523C312.621 240.716 313.687 241.312 314.686 242.312C314.936 242.562 315.181 242.871 315.419 243.238C315.658 243.605 315.857 244.02 316.016 244.482C316.175 244.944 316.273 245.452 316.311 246.005ZM310.46 248.493C310.854 248.099 311.153 247.682 311.358 247.243C311.562 246.804 311.676 246.368 311.698 245.936C311.721 245.505 311.653 245.088 311.494 244.687C311.335 244.285 311.096 243.925 310.778 243.607C310.271 243.1 309.731 242.768 309.159 242.613C308.587 242.458 308.017 242.418 307.449 242.494C306.881 242.57 306.324 242.729 305.779 242.971C305.234 243.213 304.738 243.479 304.291 243.766C303.844 244.054 303.461 244.334 303.143 244.607C302.825 244.88 302.602 245.081 302.473 245.209C301.965 245.717 301.594 246.209 301.36 246.686C301.125 247.163 300.996 247.618 300.973 248.05C300.951 248.481 301.026 248.887 301.2 249.265C301.375 249.644 301.621 249.992 301.939 250.311C302.348 250.72 302.791 251.007 303.268 251.174C303.745 251.341 304.24 251.418 304.751 251.407C305.262 251.396 305.777 251.305 306.296 251.134C306.815 250.964 307.322 250.744 307.818 250.475C308.315 250.206 308.788 249.9 309.239 249.555C309.689 249.21 310.096 248.856 310.46 248.493Z"/>
<path clip-path="url(#TextBounds)" d="M324.855 262.274C325.196 262.918 325.374 263.539 325.389 264.137C325.404 264.736 325.275 265.311 325.003 265.864C324.73 266.417 324.332 266.955 323.81 267.478C323.279 268.008 322.647 268.466 321.912 268.852C321.178 269.239 320.384 269.464 319.532 269.528C318.68 269.593 317.792 269.455 316.868 269.114C315.944 268.773 315.024 268.144 314.107 267.228L307.267 260.388L321.901 250.254L325.207 253.56L320.106 257.071L323.298 260.263C323.995 260.96 324.514 261.63 324.855 262.274ZM320.015 273.136L334.637 262.99L337.886 266.239L323.276 276.396L320.015 273.136ZM320.299 262.195C320.079 261.914 319.814 261.619 319.504 261.308L317.254 259.059L313.403 261.683L315.97 264.251C316.75 265.031 317.51 265.434 318.248 265.461C318.987 265.488 319.629 265.228 320.174 264.683C320.469 264.387 320.659 264.103 320.742 263.831C320.825 263.558 320.827 263.287 320.748 263.018C320.668 262.749 320.519 262.475 320.299 262.195Z"/>
<path clip-path="url(#TextBounds)" d="M336.182 278.691L329.922 283.043L326.673 279.793L341.284 269.636L344.544 272.897L339.25 276.555L343.749 281.055L349.032 277.385L352.293 280.646L337.671 290.791L334.421 287.542L340.681 283.19L336.182 278.691Z"/>
<path clip-path="url(#TextBounds)" d="M352.986 291.45L353.031 291.496L363.597 291.95L368.062 296.415L356.633 295.415L353.474 306.595L349.68 302.8L352.213 294.813L348.703 294.416L344.328 297.449L341.068 294.188L355.69 284.043L358.939 287.292L352.986 291.45Z"/>
<path clip-path="url(#TextBounds)" d="M367.869 316.832C367.074 316.976 366.246 316.981 365.387 316.849C364.527 316.716 363.652 316.425 362.762 315.974C361.872 315.523 361.007 314.877 360.166 314.037C359.318 313.188 358.699 312.293 358.309 311.35C357.919 310.407 357.754 309.447 357.814 308.47C357.875 307.493 358.155 306.512 358.655 305.527C359.155 304.542 359.871 303.584 360.802 302.653C361.325 302.13 361.92 301.649 362.586 301.21C363.253 300.77 363.968 300.403 364.733 300.108C365.498 299.812 366.29 299.608 367.108 299.494C367.926 299.381 368.755 299.388 369.596 299.517C370.437 299.646 371.264 299.913 372.079 300.318C372.893 300.723 373.675 301.301 374.425 302.05C375.129 302.755 375.693 303.539 376.118 304.402C376.542 305.266 376.769 306.178 376.799 307.14C376.83 308.102 376.623 309.096 376.18 310.123C375.737 311.149 375.004 312.173 373.982 313.196C373.573 313.605 373.202 313.946 372.868 314.219C372.535 314.491 372.209 314.726 371.891 314.923L363.472 306.504C363.389 306.557 363.294 306.625 363.188 306.709C363.082 306.792 362.935 306.928 362.745 307.118C362.48 307.383 362.266 307.688 362.103 308.032C361.94 308.377 361.853 308.744 361.842 309.134C361.831 309.524 361.908 309.928 362.075 310.344C362.242 310.761 362.529 311.174 362.938 311.583C363.453 312.098 364.029 312.423 364.665 312.56C365.302 312.696 365.889 312.685 366.426 312.526L370.028 316.127C369.377 316.461 368.657 316.695 367.869 316.832ZM365.983 304.448L371.153 309.617L371.618 309.151C371.899 308.871 372.137 308.545 372.334 308.174C372.531 307.803 372.645 307.413 372.675 307.004C372.705 306.595 372.641 306.171 372.482 305.732C372.323 305.292 372.028 304.857 371.596 304.425C371.172 304.001 370.715 303.707 370.227 303.544C369.738 303.382 369.246 303.321 368.75 303.363C368.254 303.404 367.767 303.524 367.29 303.721C366.813 303.918 366.377 304.16 365.983 304.448Z"/>
</g>
<path d="M11.34 3.81917e-14L419.58 408.24" fill="none" opacity="1" stroke="#f1e2ce" stroke-dasharray="15.0" stroke-linecap="butt" stroke-linejoin="miter" stroke-width="2"/>
<path d="M107.73-1.961e-14L419.58 311.85" fill="none" opacity="1" stroke="#f1e2ce" stroke-dasharray="15.0" stroke-linecap="butt" stroke-linejoin="miter" stroke-width="2"/>
</g>
</svg>
