<?xml version="1.0" encoding="UTF-8" standalone="no"?>
<!DOCTYPE svg PUBLIC "-//W3C//DTD SVG 1.1//EN" "http://www.w3.org/Graphics/SVG/1.1/DTD/svg11.dtd">
<!-- Created with Vectornator (http://vectornator.io/) -->
<svg height="100%" stroke-miterlimit="10" style="fill-rule:nonzero;clip-rule:evenodd;stroke-linecap:round;stroke-linejoin:round;" version="1.1" viewBox="0 0 153.303 129.463" width="100%" xml:space="preserve" xmlns="http://www.w3.org/2000/svg" xmlns:vectornator="http://vectornator.io" xmlns:xlink="http://www.w3.org/1999/xlink">
<defs>
<clipPath id="TextBounds">
<rect height="36.4487" width="225.246" x="-3.31753" y="95.9624"/>
</clipPath>
</defs>
<g id="Слой-2" vectornator:layerName="Слой 2">
<path d="M42.8575 35.3263C42.7427 12.9741 57.4994 3.88839 75.5611 3.88839C93.6228 3.88839 108.15 12.9741 108.265 35.3263C108.38 57.6785 76.0204 93.2971 76.0204 93.2971C76.0204 93.2971 42.9723 57.6785 42.8575 35.3263Z" fill="none" opacity="1" stroke="#e2261e" stroke-linecap="butt" stroke-linejoin="miter" stroke-width="6.42848"/>
<path d="M61.1404 31.8925C61.1404 23.9555 67.6809 17.5214 75.7489 17.5214C83.817 17.5214 90.3574 23.9555 90.3574 31.8925C90.3574 39.8294 83.817 46.2636 75.7489 46.2636C67.6809 46.2636 61.1404 39.8294 61.1404 31.8925Z" fill="none" opacity="1" stroke="#e12a22" stroke-linecap="butt" stroke-linejoin="miter" stroke-width="6.42848"/>
<g fill="#e12a22" opacity="1" stroke="none">
<path clip-path="url(#TextBounds)" d="M12.523 124.246L17.1012 124.246L17.1012 104.448L12.7623 104.448L5.05166 116.961L4.83772 116.961L4.83772 104.448L0.259545 104.448L0.259545 124.246L4.5984 124.246L12.3141 111.714L12.523 111.714L12.523 124.246Z"/>
<path clip-path="url(#TextBounds)" d="M30.2699 124.246L34.8852 124.246L34.8852 108.758L30.2699 108.758L30.2699 114.611L25.2253 114.611L25.2253 108.758L20.6099 108.758L20.6099 124.246L25.2253 124.246L25.2253 118.01L30.2699 118.01L30.2699 124.246Z"/>
<path clip-path="url(#TextBounds)" d="M50.2264 112.157L50.2264 108.758L36.9476 108.758L36.9476 112.157L41.2795 112.157L41.2795 124.246L45.8946 124.246L45.8946 112.157L50.2264 112.157Z"/>
<path clip-path="url(#TextBounds)" d="M61.4601 124.42C62.6204 124.42 63.6309 124.137 64.4915 123.572C65.3521 123.006 66.0217 122.182 66.5004 121.099C66.979 120.016 67.2183 118.691 67.2183 117.124L67.2183 115.862C67.2183 114.277 66.979 112.945 66.5004 111.867C66.0217 110.788 65.3545 109.971 64.4988 109.415C63.643 108.859 62.6446 108.581 61.5036 108.581C60.9621 108.581 60.4641 108.642 60.0096 108.763C59.5552 108.883 59.1394 109.055 58.7623 109.277C58.3851 109.5 58.0588 109.768 57.7832 110.082C57.5076 110.397 57.278 110.742 57.0943 111.12L56.8767 111.12L56.8767 108.755L52.2933 108.755L52.2933 129.395L56.9202 129.395L56.9202 121.911L57.1378 121.911C57.3698 122.414 57.6914 122.854 58.1023 123.231C58.5133 123.608 59.0016 123.9 59.5673 124.108C60.1329 124.316 60.7639 124.42 61.4601 124.42ZM59.7341 120.837C59.1732 120.837 58.6801 120.688 58.2546 120.388C57.8291 120.088 57.498 119.648 57.2611 119.068C57.0242 118.488 56.9057 117.787 56.9057 116.965L56.9057 116.008C56.9057 115.186 57.0242 114.489 57.2611 113.919C57.498 113.348 57.8267 112.916 58.2474 112.621C58.668 112.326 59.1587 112.178 59.7196 112.178C60.2804 112.178 60.7639 112.323 61.17 112.613C61.5761 112.904 61.8904 113.334 62.1128 113.904C62.3352 114.475 62.4464 115.176 62.4464 116.008L62.4464 116.965C62.4464 117.816 62.3328 118.529 62.1055 119.104C61.8783 119.68 61.5616 120.112 61.1555 120.402C60.7494 120.692 60.2756 120.837 59.7341 120.837Z"/>
<path clip-path="url(#TextBounds)" d="M74.2225 124.478C74.9864 124.478 75.6367 124.377 76.1733 124.173C76.71 123.97 77.15 123.712 77.4932 123.398C77.8365 123.083 78.0952 122.747 78.2692 122.389L78.4868 122.389L78.4868 124.246L82.8236 124.246L82.8236 113.919C82.8236 112.642 82.5311 111.61 81.9461 110.822C81.3611 110.034 80.5706 109.454 79.5746 109.082C78.5787 108.709 77.4618 108.523 76.2241 108.523C74.9961 108.523 73.9663 108.671 73.1347 108.966C72.3031 109.261 71.6383 109.657 71.1403 110.155C70.6423 110.653 70.2797 111.207 70.0525 111.816C69.8253 112.425 69.6971 113.044 69.6681 113.672L73.9904 113.672C74.0098 113.324 74.1065 113.015 74.2805 112.744C74.4546 112.473 74.7011 112.263 75.0202 112.113C75.3393 111.963 75.7165 111.888 76.1516 111.888C76.8091 111.888 77.3264 112.057 77.7036 112.396C78.0807 112.734 78.2692 113.223 78.2692 113.861L78.2692 115.152L74.6721 115.152C72.8639 115.152 71.4836 115.57 70.5311 116.406C69.5787 117.243 69.1024 118.367 69.1024 119.779C69.1024 121.248 69.5787 122.399 70.5311 123.231C71.4836 124.062 72.714 124.478 74.2225 124.478ZM75.818 121.258C75.2668 121.258 74.7713 121.106 74.3313 120.801C73.8913 120.497 73.6713 120.035 73.6713 119.416C73.6713 118.894 73.8599 118.471 74.237 118.147C74.6141 117.823 75.1653 117.661 75.8905 117.661L78.2692 117.661L78.2692 119.198C78.2692 119.614 78.158 119.977 77.9356 120.286C77.7132 120.596 77.4159 120.835 77.0436 121.004C76.6713 121.174 76.2628 121.258 75.818 121.258Z"/>
<path clip-path="url(#TextBounds)" d="M85.3118 116.979C85.3118 118.565 85.6068 119.919 86.1966 121.041C86.7865 122.162 87.6156 123.025 88.6841 123.63C89.7526 124.234 91.0121 124.536 92.4625 124.536C93.7196 124.536 94.8412 124.328 95.8275 123.912C96.8138 123.497 97.6067 122.863 98.2062 122.012C98.8058 121.161 99.1394 120.083 99.2071 118.778L95.0298 118.778C94.9814 119.165 94.8751 119.525 94.7107 119.858C94.5463 120.192 94.2997 120.46 93.971 120.663C93.6422 120.866 93.2167 120.968 92.6946 120.968C91.8533 120.968 91.1885 120.615 90.7002 119.909C90.2119 119.203 89.9678 118.217 89.9678 116.95L89.9678 115.862C89.9678 114.683 90.2095 113.752 90.693 113.07C91.1765 112.389 91.8388 112.048 92.6801 112.048C93.1055 112.048 93.4827 112.152 93.8114 112.36C94.1402 112.568 94.4061 112.846 94.6092 113.194C94.8122 113.542 94.9379 113.929 94.9863 114.354L99.1635 114.354C99.1442 113.232 98.8638 112.229 98.3223 111.344C97.7808 110.46 97.0169 109.761 96.0306 109.248C95.0443 108.736 93.8646 108.48 92.4915 108.48C90.9927 108.48 89.7091 108.789 88.6406 109.408C87.5721 110.027 86.7502 110.89 86.1749 111.997C85.5995 113.104 85.3118 114.388 85.3118 115.848L85.3118 116.979Z"/>
<path clip-path="url(#TextBounds)" d="M108.454 108.48C106.887 108.48 105.555 108.801 104.458 109.444C103.36 110.087 102.524 110.972 101.948 112.099C101.373 113.225 101.085 114.514 101.085 115.964L101.085 116.95C101.085 118.507 101.373 119.854 101.948 120.99C102.524 122.126 103.36 123.001 104.458 123.615C105.555 124.229 106.887 124.536 108.454 124.536C110.02 124.536 111.35 124.229 112.442 123.615C113.535 123.001 114.367 122.124 114.937 120.983C115.508 119.842 115.793 118.493 115.793 116.936L115.793 115.935C115.793 114.485 115.508 113.196 114.937 112.07C114.367 110.943 113.535 110.063 112.442 109.43C111.35 108.796 110.02 108.48 108.454 108.48ZM108.454 111.932C109.101 111.932 109.619 112.113 110.006 112.476C110.392 112.838 110.673 113.322 110.847 113.926C111.021 114.53 111.108 115.19 111.108 115.906L111.108 117.081C111.108 117.758 111.023 118.401 110.854 119.01C110.685 119.619 110.407 120.115 110.02 120.497C109.633 120.879 109.111 121.07 108.454 121.07C107.786 121.07 107.257 120.876 106.865 120.489C106.474 120.103 106.193 119.605 106.024 118.995C105.855 118.386 105.77 117.748 105.77 117.081L105.77 115.906C105.77 115.19 105.857 114.53 106.031 113.926C106.205 113.322 106.488 112.838 106.88 112.476C107.271 112.113 107.796 111.932 108.454 111.932Z"/>
<path clip-path="url(#TextBounds)" d="M130.199 129.388L130.199 124.483C131.827 124.445 133.236 124.109 134.427 123.475C135.617 122.842 136.537 121.965 137.187 120.845C137.836 119.725 138.161 118.415 138.161 116.915L138.161 116.169C138.161 114.538 137.838 113.161 137.192 112.036C136.546 110.912 135.628 110.054 134.437 109.464C133.247 108.873 131.834 108.559 130.199 108.52L130.199 104.854L125.762 104.854L125.762 108.52C124.14 108.559 122.732 108.894 121.539 109.528C120.345 110.162 119.424 111.038 118.774 112.158C118.125 113.278 117.8 114.592 117.8 116.098L117.8 116.844C117.8 118.468 118.124 119.843 118.772 120.967C119.419 122.092 120.339 122.949 121.531 123.54C122.723 124.131 124.134 124.445 125.762 124.483L125.762 129.388L130.199 129.388ZM133.668 116.09L133.668 116.927C133.668 117.651 133.549 118.322 133.311 118.94C133.072 119.559 132.692 120.064 132.17 120.458C131.648 120.851 130.96 121.071 130.104 121.119L130.104 111.885C130.992 111.929 131.696 112.156 132.216 112.564C132.736 112.973 133.108 113.488 133.332 114.111C133.556 114.734 133.668 115.394 133.668 116.09ZM122.293 116.923L122.293 116.086C122.293 115.356 122.412 114.682 122.651 114.063C122.889 113.445 123.271 112.938 123.796 112.543C124.321 112.149 125.008 111.929 125.857 111.885L125.857 121.119C124.969 121.074 124.265 120.848 123.745 120.439C123.225 120.031 122.853 119.516 122.629 118.894C122.405 118.273 122.293 117.616 122.293 116.923Z"/>
<path clip-path="url(#TextBounds)" d="M152.533 112.157L152.533 108.758L139.254 108.758L139.254 112.157L143.586 112.157L143.586 124.246L148.201 124.246L148.201 112.157L152.533 112.157Z"/>
</g>
</g>
</svg>
