<?xml version="1.0" encoding="UTF-8" standalone="no"?>
<!DOCTYPE svg PUBLIC "-//W3C//DTD SVG 1.1//EN" "http://www.w3.org/Graphics/SVG/1.1/DTD/svg11.dtd">
<!-- Created with Vectornator (http://vectornator.io/) -->
<svg height="100%" stroke-miterlimit="10" style="fill-rule:nonzero;clip-rule:evenodd;stroke-linecap:round;stroke-linejoin:round;" version="1.1" viewBox="0 0 1200 700" width="100%" xml:space="preserve" xmlns="http://www.w3.org/2000/svg" xmlns:vectornator="http://vectornator.io" xmlns:xlink="http://www.w3.org/1999/xlink">
<defs/>
<g id="Слой-1" vectornator:layerName="Слой 1">
<path d="M105 657.7L1115.55 659.237" fill="none" opacity="1" stroke="#42353f" stroke-linecap="butt" stroke-linejoin="miter" stroke-width="5.45588"/>
<path d="M370.619 354.839L414.862 354.839L811.693 354.839C822.023 354.839 830.397 363.213 830.397 373.544L830.397 623.998C830.397 623.998 853.316 622.971 853.363 640.408C853.425 663.819 822.023 660.552 811.693 660.552L370.619 660.552C360.289 660.552 329.027 664.52 329.169 640.005C329.275 621.907 351.915 623.998 351.915 623.998L351.915 373.544C351.915 363.213 360.289 354.839 370.619 354.839Z" fill="#4f4e57" fill-rule="nonzero" opacity="1" stroke="none"/>
<path d="M578.045 470.611C578.045 457.117 588.989 446.178 602.489 446.178C615.989 446.178 626.933 457.117 626.933 470.611C626.933 484.106 615.989 495.045 602.489 495.045C588.989 495.045 578.045 484.106 578.045 470.611Z" fill="none" opacity="1" stroke="#f4efe4" stroke-linecap="butt" stroke-linejoin="miter" stroke-width="7.12192"/>
<path d="M567.627 460.419C567.627 446.054 579.273 434.408 593.639 434.408C608.004 434.408 619.65 446.054 619.65 460.419C619.65 474.785 608.004 486.431 593.639 486.431C579.273 486.431 567.627 474.785 567.627 460.419Z" fill="#f4efe4" fill-rule="nonzero" opacity="1" stroke="none"/>
<path d="M894.291 544.537L942.78 544.537C942.804 544.537 942.823 544.597 942.823 544.597L954.359 544.55C954.359 544.55 961.309 546.288 961.844 552.77C963.815 576.67 953.572 644.458 950.72 650.951C948.858 655.191 942.823 656.3 942.823 656.3C942.823 656.333 942.804 656.36 942.78 656.36L894.291 656.36C894.268 656.36 894.249 656.333 894.249 656.3C894.249 656.3 887.799 654.068 886.647 649.832C879.354 623.033 871.458 560.329 871.1 553.037C870.819 547.302 878.591 544.95 878.591 544.95L894.249 544.597C894.249 544.564 894.268 544.537 894.291 544.537Z" fill="#f8eee9" fill-rule="nonzero" opacity="1" stroke="none"/>
<path d="M856.308 564.911C856.308 557.207 862.653 550.962 870.479 550.962C878.306 550.962 884.65 557.207 884.65 564.911C884.65 572.615 878.306 578.861 870.479 578.861C862.653 578.861 856.308 572.615 856.308 564.911Z" fill="none" opacity="1" stroke="#f8eee9" stroke-linecap="butt" stroke-linejoin="miter" stroke-width="5.45588"/>
<path d="M502.038 178.363C502.038 135.541 539.338 100.827 585.351 100.827C631.364 100.827 668.664 135.541 668.664 178.363C668.664 221.185 631.364 255.899 585.351 255.899C539.338 255.899 502.038 221.185 502.038 178.363Z" fill="#feb7b7" fill-rule="nonzero" opacity="1" stroke="none"/>
<path d="M522.847 56.552C562.886 39.4727 564.845 61.3117 578.285 60.1918C587.776 59.4009 633.442 51.7922 648.842 66.6315C651.463 69.1572 642.402 83.7107 642.402 83.7107C642.402 83.7107 658.3 68.8355 660.321 73.0712C666.201 85.3907 687.76 94.9102 684.12 116.469C680.502 137.899 669.533 180.826 668.969 174.732C668.033 164.612 660.911 147.328 660.911 147.328C660.911 147.328 648.951 135.658 643.475 133.427C614.589 121.658 542.979 120.198 529.795 123.645C514.953 127.527 504.071 160.683 501.75 175.038C501.078 179.193 497.262 146.495 494.289 141.668C474.969 110.31 492.049 109.75 499.888 94.0703C507.728 78.391 502.343 65.2988 522.847 56.552Z" fill="#705046" fill-rule="nonzero" opacity="1" stroke="none"/>
<path d="M528.049 284.115L651.253 287.387C651.317 287.387 720.721 321.014 724.194 323.992C743.21 340.298 747.774 354.56 747.774 354.56C747.774 354.612 747.722 354.655 747.658 354.655L420.303 354.655C420.239 354.655 420.187 354.612 420.187 354.56C420.187 354.56 428.161 338.045 445.858 325.688C454.165 319.887 527.985 284.115 528.049 284.115Z" fill="#df2a1b" fill-rule="nonzero" opacity="1" stroke="none"/>
</g>
</svg>
